<svg width="168" height="55" viewBox="0 0 168 55" fill="none" xmlns="http://www.w3.org/2000/svg">
<path d="M60.3379 51.8572V46.3222L59.6179 46.2387C59.5279 46.2172 59.4529 46.1851 59.3929 46.1422C59.3372 46.0951 59.3093 46.0287 59.3093 45.9429V45.4737H60.3379V44.8437C60.3379 44.4708 60.3893 44.1408 60.4922 43.8537C60.5993 43.5622 60.7493 43.3179 60.9422 43.1208C61.1393 42.9194 61.375 42.7672 61.6493 42.6644C61.9236 42.5615 62.2322 42.5101 62.575 42.5101C62.8665 42.5101 63.1365 42.5529 63.385 42.6387L63.3593 43.2108C63.355 43.2965 63.3186 43.3479 63.25 43.3651C63.1815 43.3822 63.085 43.3908 62.9608 43.3908H62.7615C62.5643 43.3908 62.3843 43.4165 62.2215 43.4679C62.0629 43.5194 61.9258 43.6029 61.81 43.7187C61.6943 43.8344 61.6043 43.9865 61.54 44.1751C61.48 44.3637 61.45 44.5972 61.45 44.8758V45.4737H63.3336V46.3029H61.4886V51.8572H60.3379Z" fill="#878D93" fill-opacity="0.8"/>
<path d="M67.0482 45.2422C67.5239 45.2422 67.9525 45.3215 68.3339 45.4801C68.7197 45.6387 69.0454 45.8637 69.3111 46.1551C69.5811 46.4465 69.7868 46.8001 69.9282 47.2158C70.0739 47.6272 70.1468 48.0879 70.1468 48.5979C70.1468 49.1122 70.0739 49.5751 69.9282 49.9865C69.7868 50.3979 69.5811 50.7494 69.3111 51.0408C69.0454 51.3322 68.7197 51.5572 68.3339 51.7158C67.9525 51.8701 67.5239 51.9472 67.0482 51.9472C66.5725 51.9472 66.1418 51.8701 65.7561 51.7158C65.3747 51.5572 65.0489 51.3322 64.7789 51.0408C64.5089 50.7494 64.3011 50.3979 64.1554 49.9865C64.0096 49.5751 63.9368 49.1122 63.9368 48.5979C63.9368 48.0879 64.0096 47.6272 64.1554 47.2158C64.3011 46.8001 64.5089 46.4465 64.7789 46.1551C65.0489 45.8637 65.3747 45.6387 65.7561 45.4801C66.1418 45.3215 66.5725 45.2422 67.0482 45.2422ZM67.0482 51.0537C67.6911 51.0537 68.1711 50.8394 68.4882 50.4108C68.8054 49.9779 68.9639 49.3758 68.9639 48.6044C68.9639 47.8287 68.8054 47.2244 68.4882 46.7915C68.1711 46.3587 67.6911 46.1422 67.0482 46.1422C66.7225 46.1422 66.4397 46.1979 66.1997 46.3094C65.9597 46.4208 65.7582 46.5815 65.5954 46.7915C65.4368 47.0015 65.3168 47.2608 65.2354 47.5694C65.1582 47.8737 65.1196 48.2187 65.1196 48.6044C65.1196 48.9901 65.1582 49.3351 65.2354 49.6394C65.3168 49.9437 65.4368 50.2008 65.5954 50.4108C65.7582 50.6165 65.9597 50.7751 66.1997 50.8865C66.4397 50.9979 66.7225 51.0537 67.0482 51.0537Z" fill="#878D93" fill-opacity="0.8"/>
<path d="M71.5568 51.8572V45.3451H72.2125C72.3368 45.3451 72.4225 45.3687 72.4696 45.4158C72.5168 45.4629 72.5489 45.5444 72.566 45.6601L72.6432 46.6758C72.866 46.2215 73.1403 45.8679 73.466 45.6151C73.796 45.3579 74.1818 45.2294 74.6232 45.2294C74.8032 45.2294 74.966 45.2508 75.1118 45.2937C75.2575 45.3322 75.3925 45.3879 75.5168 45.4608L75.3689 46.3158C75.3389 46.4229 75.2725 46.4765 75.1696 46.4765C75.1096 46.4765 75.0175 46.4572 74.8932 46.4187C74.7689 46.3758 74.5953 46.3544 74.3725 46.3544C73.9739 46.3544 73.6396 46.4701 73.3696 46.7015C73.1039 46.9329 72.881 47.2694 72.701 47.7108V51.8572H71.5568Z" fill="#878D93" fill-opacity="0.8"/>
<path d="M76.7423 51.8572V45.3451H77.4237C77.5866 45.3451 77.6895 45.4244 77.7323 45.5829L77.8159 46.2515C78.0559 45.9558 78.3237 45.7137 78.6194 45.5251C78.9194 45.3365 79.2666 45.2422 79.6609 45.2422C80.1023 45.2422 80.458 45.3644 80.728 45.6087C81.0023 45.8529 81.1994 46.1829 81.3195 46.5987C81.4095 46.3629 81.5273 46.1594 81.673 45.9879C81.823 45.8165 81.9902 45.6751 82.1744 45.5637C82.3587 45.4522 82.5537 45.3708 82.7595 45.3194C82.9695 45.2679 83.1816 45.2422 83.3959 45.2422C83.7387 45.2422 84.043 45.2979 84.3087 45.4094C84.5787 45.5165 84.8059 45.6751 84.9902 45.8851C85.1787 46.0951 85.3223 46.3544 85.4209 46.6629C85.5195 46.9672 85.5687 47.3165 85.5687 47.7108V51.8572H84.4245V47.7108C84.4245 47.2008 84.313 46.8151 84.0902 46.5537C83.8673 46.2879 83.5437 46.1551 83.1194 46.1551C82.9309 46.1551 82.7509 46.1894 82.5795 46.2579C82.4123 46.3222 82.2645 46.4187 82.1359 46.5472C82.0073 46.6758 81.9044 46.8387 81.8273 47.0358C81.7544 47.2287 81.718 47.4537 81.718 47.7108V51.8572H80.5737V47.7108C80.5737 47.1879 80.4687 46.7979 80.2587 46.5408C80.0487 46.2837 79.7423 46.1551 79.3395 46.1551C79.0566 46.1551 78.793 46.2322 78.5487 46.3865C78.3087 46.5365 78.088 46.7422 77.8866 47.0037V51.8572H76.7423Z" fill="#878D93" fill-opacity="0.8"/>
<path d="M89.8796 45.2422C90.2696 45.2422 90.6296 45.3087 90.9596 45.4415C91.2896 45.5701 91.5746 45.7587 91.8146 46.0072C92.0546 46.2515 92.241 46.5558 92.3739 46.9201C92.511 47.2801 92.5796 47.6915 92.5796 48.1544C92.5796 48.3344 92.5603 48.4544 92.5217 48.5144C92.4832 48.5744 92.4103 48.6044 92.3032 48.6044H87.9703C87.9789 49.0158 88.0346 49.3737 88.1375 49.6779C88.2403 49.9822 88.3817 50.2372 88.5617 50.4429C88.7417 50.6444 88.956 50.7965 89.2046 50.8994C89.4532 50.9979 89.7317 51.0472 90.0403 51.0472C90.3275 51.0472 90.5739 51.0151 90.7796 50.9508C90.9896 50.8822 91.1696 50.8094 91.3196 50.7322C91.4696 50.6551 91.5939 50.5844 91.6925 50.5201C91.7953 50.4515 91.8832 50.4172 91.956 50.4172C92.0503 50.4172 92.1232 50.4537 92.1746 50.5265L92.496 50.9444C92.3546 51.1158 92.1853 51.2658 91.9882 51.3944C91.791 51.5187 91.5789 51.6215 91.3517 51.7029C91.1289 51.7844 90.8975 51.8444 90.6575 51.8829C90.4175 51.9258 90.1796 51.9472 89.9439 51.9472C89.4939 51.9472 89.0782 51.8722 88.6967 51.7222C88.3196 51.5679 87.9917 51.3451 87.7132 51.0537C87.4389 50.7579 87.2246 50.3937 87.0703 49.9608C86.916 49.5279 86.8389 49.0308 86.8389 48.4694C86.8389 48.0151 86.9075 47.5908 87.0446 47.1965C87.186 46.8022 87.3875 46.4615 87.6489 46.1744C87.9103 45.8829 88.2296 45.6558 88.6067 45.4929C88.9839 45.3258 89.4082 45.2422 89.8796 45.2422ZM89.9053 46.0844C89.3525 46.0844 88.9174 46.2451 88.6003 46.5665C88.2832 46.8837 88.086 47.3251 88.0089 47.8908H91.551C91.551 47.6251 91.5146 47.3829 91.4417 47.1644C91.3689 46.9415 91.2617 46.7508 91.1203 46.5922C90.9789 46.4294 90.8053 46.3051 90.5996 46.2194C90.3982 46.1294 90.1667 46.0844 89.9053 46.0844Z" fill="#878D93" fill-opacity="0.8"/>
<path d="M94.0442 51.8572V45.3451H94.6999C94.8242 45.3451 94.9099 45.3687 94.9571 45.4158C95.0042 45.4629 95.0363 45.5444 95.0535 45.6601L95.1306 46.6758C95.3535 46.2215 95.6278 45.8679 95.9535 45.6151C96.2835 45.3579 96.6692 45.2294 97.1106 45.2294C97.2906 45.2294 97.4535 45.2508 97.5992 45.2937C97.7449 45.3322 97.8799 45.3879 98.0042 45.4608L97.8563 46.3158C97.8263 46.4229 97.7599 46.4765 97.6571 46.4765C97.5971 46.4765 97.5049 46.4572 97.3806 46.4187C97.2563 46.3758 97.0828 46.3544 96.8599 46.3544C96.4613 46.3544 96.1271 46.4701 95.8571 46.7015C95.5913 46.9329 95.3685 47.2694 95.1885 47.7108V51.8572H94.0442Z" fill="#878D93" fill-opacity="0.8"/>
<path d="M100.503 42.3879V51.8572H99.3583V42.3879H100.503Z" fill="#878D93" fill-opacity="0.8"/>
<path d="M104.429 53.7794C104.39 53.8651 104.341 53.9337 104.281 53.9851C104.225 54.0365 104.137 54.0622 104.017 54.0622H103.169L104.358 51.4779L101.671 45.3451H102.661C102.759 45.3451 102.837 45.3708 102.892 45.4222C102.948 45.4694 102.989 45.5229 103.014 45.5829L104.757 49.6844C104.795 49.7787 104.827 49.8729 104.853 49.9672C104.883 50.0615 104.909 50.1579 104.93 50.2565C104.96 50.1579 104.99 50.0615 105.02 49.9672C105.05 49.8729 105.084 49.7765 105.123 49.6779L106.814 45.5829C106.839 45.5144 106.882 45.4587 106.942 45.4158C107.007 45.3687 107.075 45.3451 107.148 45.3451H108.061L104.429 53.7794Z" fill="#878D93" fill-opacity="0.8"/>
<path d="M113.134 48.4115V51.8572H111.893V42.6451H114.613C115.195 42.6451 115.701 42.7137 116.13 42.8508C116.563 42.9837 116.92 43.1744 117.203 43.4229C117.486 43.6715 117.696 43.9715 117.833 44.3229C117.975 44.6744 118.045 45.0665 118.045 45.4994C118.045 45.9279 117.97 46.3201 117.82 46.6758C117.67 47.0315 117.45 47.3379 117.158 47.5951C116.871 47.8522 116.513 48.0537 116.085 48.1994C115.656 48.3408 115.165 48.4115 114.613 48.4115H113.134ZM113.134 47.4215H114.613C114.968 47.4215 115.281 47.3744 115.551 47.2801C115.825 47.1858 116.055 47.0551 116.239 46.8879C116.423 46.7165 116.563 46.5129 116.657 46.2772C116.751 46.0415 116.798 45.7822 116.798 45.4994C116.798 44.9122 116.616 44.4537 116.252 44.1237C115.892 43.7937 115.345 43.6287 114.613 43.6287H113.134V47.4215Z" fill="#878D93" fill-opacity="0.8"/>
<path d="M121.892 45.2422C122.368 45.2422 122.796 45.3215 123.178 45.4801C123.563 45.6387 123.889 45.8637 124.155 46.1551C124.425 46.4465 124.631 46.8001 124.772 47.2158C124.918 47.6272 124.991 48.0879 124.991 48.5979C124.991 49.1122 124.918 49.5751 124.772 49.9865C124.631 50.3979 124.425 50.7494 124.155 51.0408C123.889 51.3322 123.563 51.5572 123.178 51.7158C122.796 51.8701 122.368 51.9472 121.892 51.9472C121.416 51.9472 120.986 51.8701 120.6 51.7158C120.218 51.5572 119.893 51.3322 119.623 51.0408C119.353 50.7494 119.145 50.3979 118.999 49.9865C118.853 49.5751 118.781 49.1122 118.781 48.5979C118.781 48.0879 118.853 47.6272 118.999 47.2158C119.145 46.8001 119.353 46.4465 119.623 46.1551C119.893 45.8637 120.218 45.6387 120.6 45.4801C120.986 45.3215 121.416 45.2422 121.892 45.2422ZM121.892 51.0537C122.535 51.0537 123.015 50.8394 123.332 50.4108C123.649 49.9779 123.808 49.3758 123.808 48.6044C123.808 47.8287 123.649 47.2244 123.332 46.7915C123.015 46.3587 122.535 46.1422 121.892 46.1422C121.566 46.1422 121.283 46.1979 121.043 46.3094C120.803 46.4208 120.602 46.5815 120.439 46.7915C120.281 47.0015 120.161 47.2608 120.079 47.5694C120.002 47.8737 119.963 48.2187 119.963 48.6044C119.963 48.9901 120.002 49.3351 120.079 49.6394C120.161 49.9437 120.281 50.2008 120.439 50.4108C120.602 50.6165 120.803 50.7751 121.043 50.8865C121.283 50.9979 121.566 51.0537 121.892 51.0537Z" fill="#878D93" fill-opacity="0.8"/>
<path d="M130.129 46.4187C130.078 46.5129 129.998 46.5601 129.891 46.5601C129.827 46.5601 129.754 46.5365 129.673 46.4894C129.591 46.4422 129.491 46.3908 129.371 46.3351C129.255 46.2751 129.116 46.2215 128.953 46.1744C128.79 46.1229 128.597 46.0972 128.374 46.0972C128.181 46.0972 128.008 46.1229 127.853 46.1744C127.699 46.2215 127.566 46.2879 127.455 46.3737C127.348 46.4594 127.264 46.5601 127.204 46.6758C127.148 46.7872 127.121 46.9094 127.121 47.0422C127.121 47.2094 127.168 47.3487 127.262 47.4601C127.361 47.5715 127.489 47.6679 127.648 47.7494C127.806 47.8308 127.986 47.9037 128.188 47.9679C128.389 48.0279 128.595 48.0944 128.805 48.1672C129.019 48.2358 129.227 48.3129 129.428 48.3987C129.63 48.4844 129.81 48.5915 129.968 48.7201C130.127 48.8487 130.253 49.0072 130.348 49.1958C130.446 49.3801 130.496 49.6029 130.496 49.8644C130.496 50.1644 130.442 50.4429 130.335 50.7001C130.228 50.9529 130.069 51.1737 129.859 51.3622C129.649 51.5465 129.392 51.6922 129.088 51.7994C128.783 51.9065 128.432 51.9601 128.033 51.9601C127.579 51.9601 127.168 51.8872 126.799 51.7415C126.431 51.5915 126.118 51.4008 125.861 51.1694L126.131 50.7322C126.165 50.6765 126.206 50.6337 126.253 50.6037C126.3 50.5737 126.362 50.5587 126.439 50.5587C126.516 50.5587 126.598 50.5887 126.683 50.6487C126.769 50.7087 126.872 50.7751 126.992 50.8479C127.116 50.9208 127.264 50.9872 127.436 51.0472C127.611 51.1072 127.83 51.1372 128.091 51.1372C128.314 51.1372 128.509 51.1094 128.676 51.0537C128.843 50.9937 128.983 50.9144 129.094 50.8158C129.206 50.7172 129.287 50.6037 129.338 50.4751C129.394 50.3465 129.422 50.2094 129.422 50.0637C129.422 49.8837 129.373 49.7358 129.274 49.6201C129.18 49.5001 129.053 49.3994 128.895 49.3179C128.736 49.2322 128.554 49.1594 128.348 49.0994C128.147 49.0351 127.939 48.9687 127.725 48.9001C127.515 48.8315 127.307 48.7544 127.101 48.6687C126.9 48.5787 126.72 48.4672 126.561 48.3344C126.403 48.2015 126.274 48.0387 126.176 47.8458C126.081 47.6487 126.034 47.4108 126.034 47.1322C126.034 46.8837 126.086 46.6458 126.188 46.4187C126.291 46.1872 126.441 45.9858 126.638 45.8144C126.836 45.6387 127.078 45.4994 127.365 45.3965C127.652 45.2937 127.98 45.2422 128.348 45.2422C128.777 45.2422 129.161 45.3108 129.499 45.4479C129.842 45.5808 130.138 45.7651 130.386 46.0008L130.129 46.4187Z" fill="#878D93" fill-opacity="0.8"/>
<path d="M133.949 51.9601C133.435 51.9601 133.038 51.8165 132.76 51.5294C132.485 51.2422 132.348 50.8287 132.348 50.2887V46.3029H131.564C131.495 46.3029 131.437 46.2837 131.39 46.2451C131.343 46.2022 131.32 46.1379 131.32 46.0522V45.5958L132.387 45.4608L132.65 43.4487C132.659 43.3844 132.687 43.3329 132.734 43.2944C132.781 43.2515 132.841 43.2301 132.914 43.2301H133.492V45.4737H135.357V46.3029H133.492V50.2115C133.492 50.4858 133.559 50.6894 133.692 50.8222C133.825 50.9551 133.996 51.0215 134.206 51.0215C134.326 51.0215 134.429 51.0065 134.515 50.9765C134.605 50.9422 134.682 50.9058 134.746 50.8672C134.81 50.8287 134.864 50.7944 134.907 50.7644C134.954 50.7301 134.995 50.7129 135.029 50.7129C135.089 50.7129 135.142 50.7494 135.19 50.8222L135.524 51.3687C135.327 51.5529 135.089 51.6987 134.81 51.8058C134.532 51.9087 134.245 51.9601 133.949 51.9601Z" fill="#878D93" fill-opacity="0.8"/>
<path d="M139.407 45.2422C139.883 45.2422 140.312 45.3215 140.693 45.4801C141.079 45.6387 141.404 45.8637 141.67 46.1551C141.94 46.4465 142.146 46.8001 142.287 47.2158C142.433 47.6272 142.506 48.0879 142.506 48.5979C142.506 49.1122 142.433 49.5751 142.287 49.9865C142.146 50.3979 141.94 50.7494 141.67 51.0408C141.404 51.3322 141.079 51.5572 140.693 51.7158C140.312 51.8701 139.883 51.9472 139.407 51.9472C138.932 51.9472 138.501 51.8701 138.115 51.7158C137.734 51.5572 137.408 51.3322 137.138 51.0408C136.868 50.7494 136.66 50.3979 136.514 49.9865C136.369 49.5751 136.296 49.1122 136.296 48.5979C136.296 48.0879 136.369 47.6272 136.514 47.2158C136.66 46.8001 136.868 46.4465 137.138 46.1551C137.408 45.8637 137.734 45.6387 138.115 45.4801C138.501 45.3215 138.932 45.2422 139.407 45.2422ZM139.407 51.0537C140.05 51.0537 140.53 50.8394 140.847 50.4108C141.164 49.9779 141.323 49.3758 141.323 48.6044C141.323 47.8287 141.164 47.2244 140.847 46.7915C140.53 46.3587 140.05 46.1422 139.407 46.1422C139.082 46.1422 138.799 46.1979 138.559 46.3094C138.319 46.4208 138.117 46.5815 137.954 46.7915C137.796 47.0015 137.676 47.2608 137.594 47.5694C137.517 47.8737 137.479 48.2187 137.479 48.6044C137.479 48.9901 137.517 49.3351 137.594 49.6394C137.676 49.9437 137.796 50.2008 137.954 50.4108C138.117 50.6165 138.319 50.7751 138.559 50.8865C138.799 50.9979 139.082 51.0537 139.407 51.0537Z" fill="#878D93" fill-opacity="0.8"/>
<path d="M143.916 54.0622V45.3451H144.597C144.76 45.3451 144.863 45.4244 144.906 45.5829L145.002 46.3544C145.281 46.0158 145.598 45.7437 145.954 45.5379C146.314 45.3322 146.727 45.2294 147.194 45.2294C147.567 45.2294 147.906 45.3022 148.21 45.4479C148.514 45.5894 148.774 45.8015 148.988 46.0844C149.202 46.3629 149.367 46.7101 149.483 47.1258C149.599 47.5415 149.657 48.0194 149.657 48.5594C149.657 49.0394 149.592 49.4872 149.464 49.9029C149.335 50.3144 149.151 50.6722 148.911 50.9765C148.671 51.2765 148.375 51.5144 148.024 51.6901C147.677 51.8615 147.284 51.9472 146.847 51.9472C146.444 51.9472 146.099 51.8808 145.812 51.7479C145.529 51.6151 145.279 51.4265 145.06 51.1822V54.0622H143.916ZM146.815 46.1551C146.442 46.1551 146.114 46.2408 145.832 46.4122C145.553 46.5837 145.296 46.8258 145.06 47.1387V50.2887C145.27 50.5715 145.499 50.7708 145.748 50.8865C146.001 51.0022 146.282 51.0601 146.59 51.0601C147.194 51.0601 147.659 50.8437 147.985 50.4108C148.311 49.9779 148.474 49.3608 148.474 48.5594C148.474 48.1351 148.435 47.7708 148.358 47.4665C148.285 47.1622 148.178 46.9137 148.037 46.7208C147.895 46.5237 147.722 46.3801 147.516 46.2901C147.31 46.2001 147.077 46.1551 146.815 46.1551Z" fill="#878D93" fill-opacity="0.8"/>
<path d="M152.283 42.3879V51.8572H151.138V42.3879H152.283Z" fill="#878D93" fill-opacity="0.8"/>
<path d="M159.082 51.8572H158.575C158.463 51.8572 158.373 51.8401 158.305 51.8058C158.236 51.7715 158.191 51.6987 158.17 51.5872L158.041 50.9829C157.87 51.1372 157.702 51.2765 157.54 51.4008C157.377 51.5208 157.205 51.6237 157.025 51.7094C156.845 51.7908 156.652 51.8529 156.447 51.8958C156.245 51.9387 156.02 51.9601 155.772 51.9601C155.519 51.9601 155.281 51.9258 155.058 51.8572C154.84 51.7844 154.649 51.6772 154.486 51.5358C154.323 51.3944 154.192 51.2165 154.094 51.0022C154 50.7837 153.952 50.5265 153.952 50.2308C153.952 49.9737 154.023 49.7272 154.165 49.4915C154.306 49.2515 154.533 49.0394 154.846 48.8551C155.163 48.6708 155.577 48.5208 156.087 48.4051C156.597 48.2851 157.22 48.2165 157.957 48.1994V47.6915C157.957 47.1858 157.848 46.8044 157.63 46.5472C157.415 46.2858 157.096 46.1551 156.672 46.1551C156.393 46.1551 156.157 46.1915 155.965 46.2644C155.776 46.3329 155.611 46.4122 155.47 46.5022C155.332 46.5879 155.212 46.6672 155.11 46.7401C155.011 46.8087 154.912 46.8429 154.814 46.8429C154.737 46.8429 154.668 46.8237 154.608 46.7851C154.552 46.7422 154.507 46.6908 154.473 46.6308L154.267 46.2644C154.627 45.9172 155.015 45.6579 155.431 45.4865C155.847 45.3151 156.307 45.2294 156.813 45.2294C157.177 45.2294 157.501 45.2894 157.784 45.4094C158.067 45.5294 158.305 45.6965 158.497 45.9108C158.69 46.1251 158.836 46.3844 158.935 46.6887C159.033 46.9929 159.082 47.3272 159.082 47.6915V51.8572ZM156.112 51.1565C156.314 51.1565 156.498 51.1372 156.665 51.0987C156.832 51.0558 156.989 50.9979 157.135 50.9251C157.285 50.8479 157.426 50.7558 157.559 50.6487C157.696 50.5415 157.829 50.4194 157.957 50.2822V48.9258C157.43 48.9429 156.982 48.9858 156.614 49.0544C156.245 49.1187 155.945 49.2044 155.714 49.3115C155.482 49.4187 155.313 49.5451 155.206 49.6908C155.103 49.8365 155.052 49.9994 155.052 50.1794C155.052 50.3508 155.079 50.4987 155.135 50.6229C155.191 50.7472 155.266 50.8501 155.36 50.9315C155.455 51.0087 155.566 51.0665 155.695 51.1051C155.823 51.1394 155.962 51.1565 156.112 51.1565Z" fill="#878D93" fill-opacity="0.8"/>
<path d="M160.816 51.8572V45.3451H161.497C161.66 45.3451 161.763 45.4244 161.806 45.5829L161.896 46.2901C162.179 45.9772 162.494 45.7244 162.841 45.5315C163.192 45.3387 163.597 45.2422 164.056 45.2422C164.412 45.2422 164.725 45.3022 164.995 45.4222C165.269 45.5379 165.496 45.7051 165.676 45.9237C165.86 46.1379 166 46.3972 166.094 46.7015C166.188 47.0058 166.235 47.3422 166.235 47.7108V51.8572H165.091V47.7108C165.091 47.2179 164.977 46.8365 164.75 46.5665C164.527 46.2922 164.185 46.1551 163.722 46.1551C163.383 46.1551 163.066 46.2365 162.77 46.3994C162.479 46.5622 162.209 46.7829 161.96 47.0615V51.8572H160.816Z" fill="#878D93" fill-opacity="0.8"/>
<g clip-path="url(#clip0_2811_41790)">
<path d="M46.0884 18.8663C45.2548 17.389 44.0432 16.1637 42.5651 15.3468C41.0268 14.4952 39.2995 14.0433 37.5379 14.0433C35.7848 14.0433 34.0489 14.4952 32.5107 15.3468C31.0412 16.1897 29.8209 17.4237 28.9873 18.9097C28.1452 20.4739 27.7155 22.2293 27.7327 24.0108C27.7155 25.8009 28.1452 27.565 28.9873 29.1379C29.8209 30.6239 31.0412 31.8491 32.5107 32.7008C34.0489 33.5524 35.7848 33.9956 37.5379 33.9956C39.2909 33.9956 41.0182 33.5524 42.5651 32.7008C44.0432 31.8665 45.2634 30.6325 46.0884 29.1292C46.9478 27.565 47.386 25.8009 47.3688 24.0108C47.4032 22.2032 46.9563 20.4305 46.0884 18.8663ZM44.9541 23.9586C44.9712 25.3143 44.6447 26.6612 43.9916 27.8517C43.3643 28.9814 42.4448 29.92 41.3362 30.5717C40.1847 31.2322 38.8871 31.5711 37.5637 31.545C36.2145 31.5798 34.8911 31.2408 33.7138 30.5717C32.6138 29.9113 31.7029 28.9727 31.0756 27.8517C30.4225 26.6612 30.0959 25.3229 30.1131 23.9586C30.0959 22.6117 30.4225 21.2908 31.0756 20.1176C31.6943 18.9792 32.6052 18.032 33.7138 17.3716C34.8825 16.7025 36.2145 16.3722 37.5637 16.3983C38.8871 16.3722 40.1847 16.7111 41.3362 17.3716C42.4534 18.0233 43.3729 18.9705 43.9916 20.1176C44.6447 21.2908 44.9798 22.6203 44.9541 23.9586Z" fill="#F05836"/>
<path d="M66.7264 14.5898C66.4944 14.3639 66.1764 14.2422 65.8585 14.2422C65.5319 14.2422 65.2225 14.3639 64.9905 14.5898C64.8788 14.7028 64.7843 14.8418 64.7241 14.9983C64.664 15.1547 64.6382 15.3111 64.6382 15.4762V29.1804L53.7416 14.6854C53.6299 14.5551 53.4924 14.4508 53.3463 14.3726C53.1917 14.2944 53.0284 14.2509 52.8565 14.2509C52.6846 14.2422 52.5214 14.2683 52.3581 14.3291C52.2034 14.39 52.0573 14.4769 51.9284 14.5985C51.8167 14.7115 51.7222 14.8505 51.662 15.007C51.6019 15.1634 51.5761 15.3198 51.5761 15.4849V32.4652C51.5675 32.6303 51.6019 32.7954 51.662 32.9431C51.7222 33.0996 51.8081 33.2299 51.9284 33.3516C52.1604 33.5775 52.4784 33.7079 52.805 33.7079C53.1315 33.7079 53.4495 33.5775 53.6815 33.3516C53.7932 33.2386 53.8791 33.0996 53.9393 32.9518C53.9994 32.8041 54.0252 32.639 54.0166 32.4826V18.7871L64.9647 33.2647C65.0765 33.4211 65.2225 33.5341 65.3858 33.6123C65.5491 33.6905 65.7382 33.7166 65.9272 33.6992C66.0905 33.7079 66.2538 33.6731 66.3999 33.6123C66.5545 33.5514 66.6834 33.4559 66.8037 33.3342C66.9155 33.2212 67.0014 33.0822 67.0616 32.9345C67.1217 32.7867 67.1475 32.6216 67.1389 32.4652V15.4762C67.1389 15.3111 67.0959 15.146 67.0272 14.9896C66.9584 14.8332 66.8553 14.7028 66.7264 14.5898Z" fill="#F05836"/>
<path d="M121.476 14.5915C121.235 14.3655 120.926 14.2439 120.599 14.2439C120.273 14.2439 119.964 14.3655 119.723 14.5915C119.499 14.8261 119.371 15.1476 119.379 15.4778V29.182L108.483 14.6784C108.371 14.548 108.233 14.4437 108.087 14.3655C107.933 14.2873 107.769 14.2439 107.597 14.2439C107.426 14.2352 107.262 14.2612 107.099 14.3221C106.944 14.3829 106.798 14.4698 106.669 14.5915C106.446 14.8261 106.317 15.1476 106.326 15.4778V32.4668C106.326 32.6319 106.351 32.7883 106.412 32.9448C106.472 33.0925 106.558 33.2315 106.669 33.3532C106.91 33.5791 107.219 33.7095 107.546 33.7095C107.872 33.7095 108.19 33.5791 108.431 33.3532C108.654 33.1186 108.775 32.8057 108.766 32.4755V18.7887L119.671 33.2663C119.774 33.4227 119.921 33.5444 120.092 33.6226C120.264 33.7008 120.445 33.7269 120.634 33.7095C120.797 33.7182 120.96 33.6834 121.115 33.6226C121.27 33.5618 121.407 33.4662 121.519 33.3532C121.742 33.1186 121.863 32.8057 121.854 32.4755V15.4778C121.854 15.3127 121.82 15.1476 121.751 14.9912C121.691 14.8435 121.596 14.7044 121.476 14.5915Z" fill="#F05836"/>
<path d="M85.3866 14.5741C85.2749 14.4611 85.146 14.3829 85.0085 14.3221C84.8624 14.2612 84.7163 14.2352 84.5616 14.2439H71.3706C71.2159 14.2352 71.0612 14.2612 70.9237 14.3221C70.7776 14.3829 70.6487 14.4611 70.5456 14.5741C70.4339 14.6871 70.3566 14.8174 70.2964 14.9564C70.2363 15.1042 70.2105 15.2519 70.2191 15.4083C70.2191 15.5561 70.2448 15.7038 70.305 15.8428C70.3652 15.9819 70.4425 16.1035 70.5542 16.2165C70.6659 16.3295 70.7948 16.4077 70.9323 16.4685C71.0784 16.5293 71.2245 16.5554 71.3792 16.5467H76.7415V32.4668C76.7415 32.6319 76.7673 32.797 76.8275 32.9535C76.8876 33.1099 76.9821 33.2489 77.0939 33.3619C77.3259 33.5791 77.6352 33.7008 77.9532 33.7008C78.1165 33.7095 78.2798 33.6747 78.4344 33.6139C78.5891 33.5531 78.7266 33.4575 78.8383 33.3445C79.0618 33.1099 79.1821 32.797 79.1735 32.4668V16.5467H84.5616C84.7163 16.5467 84.8624 16.5206 85.0085 16.4685C85.1545 16.4077 85.2835 16.3295 85.3866 16.2165C85.4983 16.1122 85.5756 15.9906 85.6358 15.8515C85.6959 15.7125 85.7217 15.5647 85.7131 15.417C85.7217 15.2606 85.6959 15.1042 85.6358 14.9651C85.5842 14.8174 85.4983 14.6871 85.3866 14.5741Z" fill="#F05836"/>
<path d="M101.254 31.302H91.2774V25.1408H98.4615C98.6162 25.1408 98.7709 25.1147 98.917 25.0539C99.0631 24.9931 99.192 24.9062 99.3037 24.7932C99.424 24.6802 99.5185 24.5499 99.5873 24.3935C99.656 24.2457 99.6818 24.0806 99.6818 23.9155C99.6818 23.7591 99.656 23.6027 99.5959 23.4549C99.5357 23.3072 99.4498 23.1769 99.3381 23.0639C99.2263 22.9509 99.0889 22.8553 98.9428 22.7945C98.7967 22.7337 98.6334 22.7076 98.4787 22.7076H91.2945V16.6159H101.272C101.598 16.6246 101.908 16.5116 102.148 16.2944C102.372 16.0597 102.492 15.7556 102.492 15.4341C102.492 15.1125 102.372 14.7997 102.148 14.5738C102.036 14.4608 101.899 14.3652 101.744 14.3044C101.59 14.2435 101.435 14.2175 101.272 14.2175H90.0571C89.7305 14.2175 89.4212 14.3391 89.1891 14.5651C89.0774 14.678 88.9829 14.8171 88.9227 14.9735C88.8626 15.1299 88.8368 15.2863 88.8368 15.4514V32.4665C88.8368 32.7967 88.9657 33.1182 89.1977 33.3616C89.4298 33.5788 89.7391 33.7005 90.0571 33.7005H101.254C101.418 33.7092 101.581 33.6744 101.727 33.6136C101.882 33.5527 102.011 33.4658 102.131 33.3442C102.243 33.2312 102.329 33.1009 102.389 32.9531C102.449 32.8054 102.475 32.649 102.475 32.4926C102.475 32.3361 102.449 32.1797 102.389 32.0407C102.329 31.8929 102.243 31.7626 102.131 31.6583C102.019 31.5453 101.882 31.4498 101.727 31.3889C101.572 31.3281 101.418 31.302 101.254 31.302Z" fill="#F05836"/>
<path d="M129.077 14.5898C128.845 14.3639 128.527 14.2422 128.209 14.2422C127.883 14.2422 127.573 14.3639 127.341 14.5898C127.229 14.7028 127.135 14.8418 127.075 14.9983C127.015 15.1547 126.989 15.3111 126.989 15.4762V32.4652C126.989 32.6303 127.015 32.7954 127.075 32.9518C127.135 33.1083 127.229 33.2473 127.341 33.3603C127.573 33.5775 127.883 33.6992 128.2 33.6992C128.364 33.7079 128.527 33.6731 128.682 33.6123C128.836 33.5514 128.974 33.4559 129.086 33.3429C129.309 33.1083 129.429 32.7954 129.421 32.4652V15.4762C129.429 15.3111 129.395 15.146 129.335 14.9983C129.275 14.8505 129.189 14.7115 129.077 14.5898Z" fill="#F05836"/>
<path d="M149.097 14.583C148.994 14.4701 148.865 14.3832 148.727 14.3223C148.581 14.2615 148.435 14.2354 148.28 14.2441C148.023 14.2354 147.773 14.305 147.55 14.4353C147.335 14.6004 147.18 14.8264 147.086 15.0784L141.053 29.6689L134.995 15.0002C134.917 14.7655 134.763 14.557 134.556 14.4179C134.35 14.2789 134.11 14.2007 133.869 14.2094C133.551 14.2007 133.242 14.3137 133.001 14.5309C132.889 14.6352 132.803 14.7655 132.752 14.9046C132.692 15.0436 132.674 15.2 132.674 15.3478C132.683 15.5998 132.735 15.8518 132.838 16.0864L139.927 32.8842C140.022 33.1275 140.177 33.3448 140.391 33.5099C140.598 33.6229 140.821 33.675 141.053 33.6663C141.294 33.6663 141.526 33.5968 141.723 33.4577C141.921 33.3187 142.067 33.1188 142.153 32.8929L149.269 15.9995C149.355 15.7996 149.397 15.5737 149.406 15.3565C149.406 15.0697 149.294 14.7916 149.097 14.583Z" fill="#F05836"/>
<path d="M165.918 31.6585C165.807 31.5456 165.669 31.45 165.515 31.3891C165.36 31.3283 165.205 31.3022 165.042 31.3022H155.065V25.141H162.249C162.404 25.141 162.558 25.115 162.704 25.0541C162.851 24.9933 162.979 24.9064 163.091 24.8021C163.212 24.6891 163.315 24.5588 163.375 24.4111C163.444 24.2633 163.478 24.0982 163.469 23.9331C163.452 23.6203 163.315 23.3335 163.083 23.1249C162.971 23.012 162.833 22.9164 162.679 22.8555C162.524 22.7947 162.369 22.7687 162.206 22.7687H155.03V16.6335H165.016C165.334 16.6422 165.652 16.5292 165.893 16.312C165.979 16.2164 166.039 16.1121 166.073 15.9904C166.108 15.8688 166.116 15.7471 166.09 15.6168V15.3474C166.116 15.217 166.108 15.0867 166.073 14.9563C166.039 14.826 165.979 14.713 165.884 14.6087C165.772 14.4958 165.635 14.4002 165.48 14.3393C165.326 14.2785 165.171 14.2524 165.008 14.2524H153.853C153.527 14.2524 153.217 14.3741 152.977 14.6C152.865 14.713 152.77 14.8521 152.71 15.0085C152.65 15.1649 152.624 15.3213 152.624 15.4864V32.4667C152.616 32.6318 152.65 32.7969 152.71 32.9447C152.77 33.1011 152.856 33.2314 152.977 33.3531C153.088 33.4661 153.226 33.5616 153.381 33.6225C153.535 33.6833 153.69 33.7094 153.853 33.7094H165.008C165.171 33.7181 165.334 33.6833 165.48 33.6225C165.635 33.5616 165.764 33.4747 165.884 33.3531C166.116 33.0837 166.236 32.7361 166.228 32.3798C166.236 32.2408 166.211 32.1017 166.159 31.9801C166.108 31.8497 166.022 31.7367 165.918 31.6585Z" fill="#F05836"/>
<path d="M28.1382 12.9831C27.9062 13.2178 27.5968 13.3394 27.2788 13.3394C26.9781 13.3394 26.6687 13.2351 26.4281 13.0179C24.5461 11.4016 22.286 10.2979 19.8541 9.80259C17.0354 9.23774 14.1136 9.52451 11.4582 10.6368C9.46452 11.4711 7.68567 12.7485 6.24196 14.3562C6.46539 14.1042 6.5857 13.7826 6.5857 13.4611C6.5857 13.1569 6.48258 12.8615 6.25915 12.6268C5.82088 12.1576 5.08184 12.1228 4.64357 12.5834C6.28493 10.7933 8.3044 9.36809 10.5559 8.42957C13.641 7.13476 17.044 6.79585 20.3181 7.45629C23.2055 8.03852 25.8953 9.36809 28.1038 11.3147C28.6022 11.7578 28.6022 12.5139 28.1382 12.9831Z" fill="#5D64FD"/>
<path d="M7.1416 34.9942C6.91817 34.8464 6.66036 34.7682 6.41115 34.7682C6.11038 34.7682 5.80961 34.8725 5.57758 35.0985C5.11353 35.5416 5.07057 36.2716 5.50883 36.7235C5.49165 36.7061 5.47446 36.6974 5.46587 36.68C5.45727 36.6714 5.44868 36.6627 5.44009 36.654C5.31118 36.5323 5.19087 36.4106 5.06197 36.289C5.0276 36.2542 5.00182 36.2282 4.96744 36.1934C4.96744 36.1934 4.95885 36.1934 4.95885 36.1847C4.95026 36.176 4.94166 36.1673 4.93307 36.1586C4.87291 36.0891 4.80417 36.0283 4.74401 35.9588C4.73542 35.9501 4.72683 35.9414 4.71823 35.9327C4.68386 35.8979 4.64948 35.8632 4.61511 35.8284C4.60652 35.8197 4.59792 35.811 4.58933 35.8023C4.57214 35.785 4.56355 35.7676 4.54636 35.7589C4.53777 35.7502 4.53777 35.7502 4.52918 35.7415C4.50339 35.7154 4.47761 35.6807 4.45183 35.6546C4.39168 35.5851 4.33153 35.5243 4.27996 35.4547C4.237 35.4026 4.18544 35.3418 4.14247 35.2896C4.06513 35.194 3.98779 35.1071 3.91044 35.0116C3.89326 34.9942 3.88466 34.9768 3.86748 34.9594C3.8331 34.916 3.79014 34.8638 3.75576 34.8117C3.74717 34.803 3.73857 34.7856 3.72998 34.7769C3.71279 34.7509 3.68701 34.7248 3.66983 34.6987L3.65264 34.6813L3.64405 34.6726C3.60108 34.6205 3.55811 34.5597 3.51514 34.5075C3.50655 34.4988 3.50655 34.4988 3.49796 34.4902C3.48077 34.4641 3.45499 34.438 3.4378 34.4119C3.42062 34.3946 3.41202 34.3685 3.39483 34.3511C3.36905 34.3164 3.34327 34.2816 3.32609 34.2555C3.3089 34.2295 3.29171 34.2121 3.27453 34.186C3.26593 34.1773 3.26593 34.1773 3.25734 34.1686C3.21437 34.1165 3.18 34.0557 3.13703 33.9948C3.10266 33.9427 3.06828 33.8905 3.02531 33.8297C3.01672 33.821 3.01672 33.8123 3.00813 33.8036C2.97375 33.7515 2.93938 33.6994 2.90501 33.6472L2.81048 33.5082C2.80188 33.4995 2.79329 33.4821 2.7847 33.4734C2.7761 33.456 2.75892 33.4387 2.75032 33.4126C2.72454 33.3691 2.69876 33.3344 2.67298 33.2909C2.6472 33.2562 2.63001 33.2214 2.61283 33.1867C2.61283 33.1867 2.61283 33.1867 2.61283 33.178C2.60423 33.1606 2.58705 33.1432 2.57845 33.1258C2.57845 33.1171 2.56986 33.1171 2.56986 33.1084C2.53549 33.0476 2.50111 32.9868 2.45814 32.926C2.45814 32.9173 2.44955 32.9173 2.44955 32.9086C2.41518 32.8564 2.3894 32.7956 2.35502 32.7435C2.33784 32.7261 2.32924 32.7 2.32065 32.6826C2.30346 32.6566 2.28627 32.6305 2.27768 32.5957C2.26909 32.587 2.26049 32.5697 2.26049 32.561C2.23471 32.5175 2.20893 32.4741 2.19175 32.4306C2.18315 32.4132 2.17456 32.3959 2.15737 32.3785V32.3698C2.14878 32.3524 2.14019 32.335 2.13159 32.3177C2.09722 32.2568 2.07144 32.2047 2.04566 32.1439C2.03706 32.1265 2.02847 32.1091 2.01988 32.083C2.01988 32.0743 2.01128 32.0743 2.01128 32.0656C1.9855 32.0135 1.95972 31.9701 1.94253 31.9179C1.91675 31.8658 1.89097 31.8223 1.87379 31.7702C1.86519 31.7528 1.8566 31.7441 1.8566 31.7267C1.83082 31.6833 1.81363 31.6311 1.78785 31.579C1.76207 31.5269 1.73629 31.466 1.71051 31.4052C1.69332 31.3618 1.67614 31.327 1.65036 31.2835C1.61598 31.214 1.58161 31.1445 1.55583 31.0663C1.54723 31.0489 1.53864 31.0315 1.53005 31.0142C1.52145 30.9881 1.50427 30.962 1.49567 30.9359C1.49567 30.9359 1.49567 30.9359 1.49567 30.9273C1.47849 30.8925 1.46989 30.8577 1.45271 30.823C1.42693 30.7708 1.40974 30.7187 1.38396 30.6666C1.37536 30.6492 1.36677 30.6231 1.35818 30.6057C1.3238 30.5188 1.28943 30.4406 1.26365 30.3537C1.26365 30.345 1.26365 30.345 1.25506 30.3363C1.22068 30.2407 1.18631 30.1452 1.15193 30.0496C1.15193 30.0409 1.14334 30.0322 1.14334 30.0322C1.12615 29.98 1.10037 29.9192 1.08319 29.8584C1.07459 29.8323 1.066 29.8149 1.05741 29.7889C1.04881 29.7541 1.03162 29.7193 1.02303 29.6846L1.00584 29.6411C0.980064 29.5629 0.954284 29.4847 0.928503 29.4065C0.911316 29.3457 0.894129 29.2935 0.876942 29.2327C0.859755 29.1719 0.842568 29.111 0.825381 29.0589C0.808194 28.9894 0.791007 28.9285 0.765227 28.859C0.74804 28.7982 0.730853 28.7287 0.713666 28.6678C0.713666 28.6505 0.705072 28.6331 0.696479 28.6157C0.687885 28.5896 0.687885 28.5723 0.679292 28.5462C0.670698 28.5288 0.670698 28.5114 0.662104 28.494C0.662104 28.4854 0.653511 28.4767 0.653511 28.468C0.636324 28.4071 0.619137 28.3376 0.60195 28.2768C0.60195 28.2681 0.60195 28.2681 0.60195 28.2594C0.60195 28.2594 0.60195 28.2594 0.60195 28.2507C0.584763 28.1899 0.57617 28.1291 0.558983 28.0682C0.550389 28.0422 0.55039 28.0074 0.541796 27.9813C0.541796 27.9726 0.533202 27.9553 0.533202 27.9466C0.524609 27.9205 0.524609 27.8944 0.516015 27.8684C0.498828 27.7988 0.490235 27.738 0.473048 27.6685C0.473048 27.6598 0.473048 27.6511 0.464455 27.6511V27.6424C0.464455 27.6164 0.455861 27.599 0.447267 27.5729C0.438674 27.5381 0.43008 27.5034 0.43008 27.4773C0.421487 27.4339 0.412893 27.3904 0.4043 27.347C0.4043 27.3209 0.395707 27.3035 0.387113 27.2774C0.37852 27.2427 0.369926 27.1992 0.369926 27.1645C0.361333 27.1471 0.361332 27.121 0.361332 27.1036C0.361332 27.0863 0.352739 27.0689 0.352739 27.0515C0.344145 26.9994 0.335552 26.9385 0.326959 26.8777V26.869C0.318365 26.7995 0.301178 26.7387 0.292585 26.6691C0.283991 26.6257 0.283991 26.5822 0.275397 26.5475C0.275397 26.5127 0.266804 26.478 0.258211 26.4519C0.249617 26.3998 0.249617 26.3563 0.241024 26.3042C0.241024 26.2955 0.241023 26.2781 0.23243 26.2694C0.23243 26.252 0.223837 26.2346 0.223837 26.2173C0.215243 26.1651 0.20665 26.113 0.20665 26.0608C0.198056 26 0.189462 25.9392 0.189462 25.8784C0.189462 25.861 0.189463 25.8436 0.180869 25.8262C0.180869 25.7915 0.172276 25.7567 0.172276 25.7132C0.163682 25.635 0.155089 25.5568 0.155089 25.4786C0.155089 25.4699 0.155089 25.4699 0.155089 25.4699C0.146496 25.3917 0.146495 25.3135 0.137902 25.244C0.137902 25.2353 0.137902 25.2266 0.137902 25.2179C0.137902 25.1832 0.137902 25.1571 0.129308 25.1223C0.129308 25.1136 0.129308 25.0963 0.129308 25.0876C0.129308 25.0615 0.129308 25.0441 0.129308 25.018C0.129308 24.9572 0.120715 24.8964 0.120715 24.8442C0.120715 24.7487 0.112122 24.6444 0.112122 24.5488C0.112122 24.5314 0.112122 24.514 0.112122 24.4966C0.112122 24.4011 0.112122 24.3055 0.112122 24.2099V24.1838C0.112122 24.1056 0.112122 24.0274 0.112122 23.9579V23.9492C0.112122 23.9231 0.112122 23.897 0.112122 23.871V23.8623C0.112122 23.8449 0.112122 23.8275 0.112122 23.8101C0.112122 23.7406 0.112121 23.6711 0.120715 23.6016C0.120715 23.5755 0.120715 23.5494 0.120715 23.5234C0.120715 23.4799 0.120715 23.4365 0.129308 23.393C0.129308 23.3756 0.129308 23.3583 0.129308 23.3409C0.129308 23.3061 0.129308 23.2713 0.137902 23.2366C0.137902 23.1497 0.146496 23.0715 0.155089 22.9933C0.155089 22.9846 0.155089 22.9672 0.155089 22.9585C0.155089 22.9498 0.155089 22.9498 0.155089 22.9411C0.163683 22.8803 0.163682 22.8195 0.172276 22.7586C0.172276 22.7239 0.180869 22.6978 0.180869 22.6631C0.180869 22.6457 0.180869 22.637 0.180869 22.6196C0.180869 22.6022 0.180869 22.5848 0.189462 22.5675C0.189462 22.5588 0.189462 22.5588 0.189462 22.5501C0.198056 22.4806 0.20665 22.411 0.215243 22.3415C0.223837 22.272 0.23243 22.1938 0.241024 22.1243C0.249617 22.0808 0.249617 22.0374 0.258211 21.9939C0.258211 21.9678 0.266804 21.9505 0.266804 21.9244C0.266804 21.9157 0.266804 21.9157 0.266804 21.907C0.283991 21.8027 0.292584 21.6985 0.309771 21.5942C0.318365 21.5247 0.335552 21.4551 0.344146 21.3856C0.344146 21.3682 0.352739 21.3509 0.352739 21.3335C0.352739 21.3161 0.361332 21.2987 0.361332 21.2813C0.369926 21.2118 0.387113 21.151 0.395706 21.0815C0.395706 21.0728 0.395706 21.0641 0.4043 21.0554C0.412893 20.9946 0.43008 20.9337 0.438674 20.8642C0.447267 20.8468 0.447268 20.8208 0.455861 20.8034C0.464455 20.7773 0.464454 20.7426 0.473048 20.7165L0.507422 20.5688C0.516016 20.5166 0.533203 20.4645 0.541796 20.4123C0.558983 20.3254 0.584763 20.2385 0.60195 20.1516C0.619137 20.0647 0.644918 19.9778 0.670698 19.8909C0.679292 19.8649 0.687885 19.8388 0.696479 19.804C0.713666 19.7519 0.722259 19.6998 0.739446 19.6476C0.748039 19.6129 0.756633 19.5868 0.765227 19.552C0.765227 19.5433 0.765227 19.5433 0.77382 19.5346C0.799601 19.4477 0.825381 19.3522 0.851162 19.2653C0.851162 19.2566 0.859755 19.2479 0.859755 19.2392C0.859755 19.2305 0.868348 19.2218 0.868348 19.2218C0.885535 19.161 0.911316 19.1001 0.928503 19.0306C0.94569 18.9785 0.962877 18.9263 0.980064 18.8742C0.988658 18.8394 1.00584 18.796 1.01444 18.7612C1.01444 18.7525 1.02303 18.7352 1.02303 18.7265C1.03162 18.6917 1.04881 18.657 1.05741 18.6222V18.6135C1.066 18.5787 1.08319 18.544 1.09178 18.5092C1.10037 18.4745 1.11756 18.4397 1.12615 18.4049C1.13475 18.3876 1.13475 18.3789 1.14334 18.3615C1.14334 18.3528 1.15193 18.3354 1.16053 18.318C1.18631 18.2398 1.22068 18.1529 1.25506 18.0747C1.26365 18.0573 1.26365 18.04 1.27224 18.0226C1.29802 17.9531 1.3238 17.8922 1.34958 17.8227C1.35818 17.8053 1.35818 17.788 1.36677 17.7793C1.38396 17.7358 1.40114 17.6924 1.41833 17.6489C1.41833 17.6402 1.42693 17.6315 1.42693 17.6228C1.44411 17.5794 1.4613 17.5359 1.47849 17.4925C1.47849 17.4838 1.48708 17.4838 1.48708 17.4751C1.49567 17.4577 1.49567 17.449 1.50427 17.4317C1.53005 17.3621 1.56442 17.3013 1.5902 17.2405C1.5988 17.2231 1.60739 17.2144 1.60739 17.197C1.63317 17.1362 1.65895 17.0754 1.69332 17.0145C1.71051 16.9885 1.7191 16.9537 1.73629 16.9276C1.73629 16.9276 1.73629 16.9276 1.73629 16.919C1.74488 16.9016 1.75348 16.8842 1.76207 16.8668C1.77067 16.8494 1.77926 16.8234 1.78785 16.806C1.79645 16.7973 1.79645 16.7799 1.80504 16.7712C1.83082 16.7278 1.84801 16.6756 1.87379 16.6322C1.89097 16.6061 1.89957 16.5714 1.91675 16.5453C1.95113 16.4758 1.9855 16.4149 2.01128 16.3541C2.01988 16.328 2.03706 16.3107 2.04566 16.2846C2.08003 16.2237 2.1144 16.1629 2.14019 16.1021C2.14019 16.0934 2.14878 16.0934 2.14878 16.0847C2.14878 16.076 2.15737 16.076 2.15737 16.0673C2.17456 16.0413 2.18315 16.0152 2.20034 15.9891C2.21753 15.963 2.22612 15.937 2.24331 15.9109C2.26049 15.8761 2.28627 15.8327 2.30346 15.7979C2.34643 15.7197 2.3894 15.6502 2.43236 15.572C2.44096 15.5546 2.44955 15.5372 2.45814 15.5199C2.47533 15.4938 2.49252 15.4677 2.50971 15.433C2.53549 15.3895 2.56127 15.3547 2.57845 15.3113C2.59564 15.2852 2.60423 15.2678 2.61283 15.2505C2.61283 15.2505 2.61283 15.2418 2.62142 15.2418C2.65579 15.1896 2.68157 15.1375 2.71595 15.0854C2.74173 15.0506 2.75892 15.0158 2.7847 14.9811C2.81048 14.9376 2.83626 14.9029 2.86204 14.8594C2.87923 14.842 2.88782 14.816 2.90501 14.7986C2.9136 14.7899 2.92219 14.7725 2.93079 14.7638C2.93938 14.7464 2.94797 14.7378 2.95657 14.7204C2.97375 14.6856 2.99953 14.6595 3.01672 14.6335C3.03391 14.6074 3.05109 14.5813 3.06828 14.5466C3.08547 14.5205 3.10266 14.4944 3.11984 14.4684C3.11984 14.4684 3.11984 14.4597 3.12844 14.4597C3.1714 14.3902 3.22297 14.3293 3.26593 14.2598C3.27453 14.2511 3.27453 14.2424 3.28312 14.2337C3.28312 14.225 3.29171 14.225 3.29171 14.2164C3.30031 14.2077 3.30031 14.199 3.3089 14.1903C3.31749 14.1816 3.32609 14.1729 3.33468 14.1642C3.37765 14.1034 3.42062 14.0426 3.46358 13.9817C3.46358 13.973 3.47218 13.973 3.47218 13.9643C3.48077 13.9557 3.48936 13.947 3.49796 13.9296C3.50655 13.9209 3.50655 13.9122 3.51514 13.9035C3.53233 13.8774 3.55811 13.8514 3.5753 13.8166C3.58389 13.8079 3.58389 13.8079 3.59249 13.7992C3.99638 13.2952 4.72683 13.2605 5.21665 13.6863C5.49165 13.9296 5.62055 14.2685 5.62055 14.6074C5.62055 14.8855 5.53461 15.1723 5.35415 15.4069C5.31118 15.4677 5.26822 15.5285 5.22525 15.5807C5.20806 15.5981 5.19947 15.6241 5.18228 15.6415C5.1565 15.6763 5.13072 15.711 5.11353 15.7458C5.10494 15.7632 5.08775 15.7806 5.07916 15.7979C5.06197 15.8153 5.05338 15.8327 5.04478 15.8501C5.03619 15.8588 5.0276 15.8761 5.019 15.8848C4.99322 15.9196 4.97604 15.9544 4.95026 15.9891C4.92448 16.0326 4.8987 16.0673 4.87291 16.1108C4.87291 16.1108 4.86432 16.1195 4.86432 16.1282C4.84714 16.1629 4.82135 16.189 4.80417 16.2151C4.77839 16.2585 4.75261 16.2933 4.72683 16.3367C4.71823 16.3454 4.70964 16.3628 4.70105 16.3715C4.70105 16.3802 4.69245 16.3889 4.68386 16.3976C4.67526 16.4062 4.67527 16.4149 4.66667 16.4236C4.6323 16.4758 4.60652 16.5192 4.58074 16.5714C4.56355 16.5974 4.55496 16.6148 4.53777 16.6409C4.52918 16.6496 4.52058 16.6669 4.51199 16.6843C4.48621 16.7191 4.46902 16.7538 4.45183 16.7973C4.44324 16.8147 4.42605 16.8321 4.41746 16.8494C4.40887 16.8668 4.40027 16.8842 4.38309 16.9016C4.38309 16.9103 4.37449 16.9103 4.37449 16.919C4.3659 16.9363 4.34871 16.9624 4.34012 16.9798C4.30574 17.0406 4.27137 17.1014 4.24559 17.1536C4.2284 17.1797 4.21981 17.2057 4.20262 17.2318C4.08231 17.4577 3.9706 17.6837 3.86748 17.9096C3.86748 17.9096 3.86748 17.9183 3.85888 17.9183C3.82451 17.9965 3.79014 18.0747 3.75576 18.1529C3.74717 18.1616 3.74717 18.179 3.73857 18.1877C3.73857 18.1877 3.73857 18.1877 3.73857 18.1964C3.72139 18.2398 3.7042 18.2833 3.68701 18.318C3.67842 18.3441 3.66123 18.3702 3.65264 18.3963C3.64405 18.4136 3.63545 18.431 3.62686 18.4484C3.60108 18.5092 3.5753 18.5787 3.54952 18.6396C3.54952 18.6483 3.54092 18.6483 3.54092 18.657C3.53233 18.6743 3.52374 18.7004 3.51514 18.7178C3.50655 18.7352 3.49796 18.7525 3.48936 18.7786C3.47218 18.8221 3.46358 18.8568 3.4464 18.9003C3.4378 18.935 3.42061 18.9698 3.41202 18.9959C3.39483 19.0393 3.37765 19.0828 3.36046 19.1262C3.35187 19.1349 3.35187 19.1523 3.34327 19.161C3.32609 19.1957 3.31749 19.2305 3.3089 19.2566C3.3089 19.2653 3.3089 19.2653 3.3089 19.2653C3.30031 19.3 3.28312 19.3261 3.27453 19.3608C3.27453 19.3695 3.26593 19.3782 3.26593 19.3956C3.26593 19.4043 3.25734 19.4217 3.25734 19.4304C3.24015 19.4825 3.22297 19.5433 3.20578 19.5955C3.19718 19.6215 3.18859 19.6563 3.18 19.6824C3.1714 19.7084 3.16281 19.7432 3.15422 19.7693C3.14562 19.804 3.13703 19.8301 3.12844 19.8649C3.12844 19.8822 3.11984 19.8909 3.11984 19.9083C3.11125 19.9257 3.11125 19.9431 3.10266 19.9605C3.09406 19.9952 3.08547 20.03 3.06828 20.0647C3.05969 20.0995 3.0511 20.1256 3.0425 20.1603C3.03391 20.1864 3.02531 20.2125 3.01672 20.2385C2.99953 20.2994 2.98235 20.3515 2.97375 20.4123C2.96516 20.4297 2.96516 20.4471 2.95657 20.4645C2.93938 20.534 2.92219 20.6035 2.90501 20.6643C2.90501 20.673 2.90501 20.673 2.90501 20.6817C2.88782 20.7512 2.87063 20.8208 2.85344 20.8903C2.85344 20.9077 2.84485 20.925 2.84485 20.9511C2.83626 20.9772 2.83626 21.0033 2.82766 21.0293C2.81907 21.0641 2.81048 21.0902 2.81048 21.1249C2.80188 21.151 2.80188 21.1771 2.79329 21.2031C2.7847 21.2205 2.7847 21.2379 2.7847 21.2553C2.76751 21.3335 2.75032 21.4204 2.73314 21.4986C2.72454 21.5333 2.72454 21.5681 2.71595 21.6029C2.70736 21.6463 2.69876 21.6985 2.69017 21.7419V21.7506C2.68158 21.7767 2.68157 21.8114 2.67298 21.8375C2.66439 21.8809 2.65579 21.9157 2.65579 21.9592C2.6472 21.9939 2.6472 22.0287 2.63861 22.0634C2.63001 22.0982 2.63001 22.1416 2.62142 22.1764C2.62142 22.2025 2.61283 22.2285 2.61283 22.2546C2.61283 22.2633 2.61283 22.2807 2.60423 22.2981C2.59564 22.385 2.57845 22.4719 2.56986 22.5588V22.5675C2.56127 22.6283 2.55267 22.6891 2.55267 22.75C2.55267 22.7673 2.55267 22.7847 2.54408 22.8021C2.53549 22.8455 2.53549 22.889 2.53549 22.9324C2.52689 22.9846 2.52689 23.028 2.52689 23.0802C2.52689 23.0889 2.52689 23.0889 2.52689 23.0976V23.1062C2.52689 23.1149 2.52689 23.1323 2.52689 23.141C2.5183 23.2192 2.5183 23.2887 2.50971 23.3669C2.50971 23.3756 2.50971 23.3756 2.50971 23.3756C2.50971 23.4365 2.50111 23.506 2.50111 23.5668C2.50111 23.5755 2.50111 23.5929 2.50111 23.6016C2.50111 23.6624 2.49252 23.7145 2.49252 23.7754C2.49252 23.7841 2.49252 23.7841 2.49252 23.7928C2.49252 23.8014 2.49252 23.8188 2.49252 23.8275V23.9405C2.49252 24.0187 2.49252 24.0969 2.49252 24.1751C2.49252 24.2968 2.49252 24.4184 2.49252 24.5314C2.49252 24.6096 2.50111 24.6878 2.50111 24.766C2.50111 24.8356 2.50971 24.9051 2.50971 24.9659C2.50971 24.9746 2.50971 24.9746 2.50971 24.9833C2.50971 25.0007 2.50971 25.0094 2.50971 25.0267C2.50971 25.0876 2.5183 25.1397 2.5183 25.2005C2.5183 25.2179 2.5183 25.2353 2.52689 25.2614C2.52689 25.2787 2.52689 25.2961 2.52689 25.3048C2.52689 25.3396 2.53549 25.3656 2.53549 25.4004C2.53549 25.4091 2.53549 25.4265 2.53549 25.4352C2.53549 25.4699 2.54408 25.496 2.54408 25.5308C2.54408 25.5394 2.54408 25.5394 2.54408 25.5481C2.55267 25.6003 2.55267 25.6524 2.56127 25.7046C2.56127 25.7132 2.56127 25.7219 2.56127 25.7306C2.56986 25.8523 2.58705 25.9653 2.60423 26.0782C2.61283 26.1304 2.62142 26.1825 2.63001 26.2346C2.63861 26.2694 2.63861 26.3129 2.6472 26.3476C2.6472 26.3563 2.6472 26.3737 2.65579 26.3911C2.66439 26.4693 2.68158 26.5475 2.69876 26.6344C2.70736 26.6778 2.71595 26.73 2.72454 26.7734C2.73314 26.8082 2.74173 26.8516 2.75032 26.8864C2.75032 26.8951 2.75032 26.9038 2.75892 26.9125C2.7761 26.9907 2.7847 27.0689 2.80188 27.1471C2.81048 27.1819 2.81907 27.2166 2.81907 27.2514C2.82766 27.2774 2.82766 27.3035 2.83626 27.3383C2.84485 27.3643 2.84485 27.3904 2.85344 27.4165C2.86204 27.4512 2.87063 27.486 2.87923 27.5208C2.89641 27.599 2.9136 27.6772 2.93079 27.7467C2.94797 27.8075 2.96516 27.8684 2.98235 27.9379C2.98235 27.9466 2.98235 27.9553 2.99094 27.964C3.00813 28.0161 3.01672 28.0682 3.03391 28.1204C3.0425 28.1464 3.0511 28.1725 3.05969 28.1986C3.06828 28.216 3.06828 28.2333 3.07688 28.2507C3.09406 28.3202 3.11984 28.3898 3.13703 28.4593C3.14562 28.5027 3.16281 28.5375 3.1714 28.5809C3.18859 28.6244 3.19718 28.6678 3.21437 28.7113C3.22297 28.7374 3.23156 28.7547 3.24015 28.7808C3.25734 28.8417 3.28312 28.9025 3.30031 28.972C3.30031 28.9807 3.3089 28.9807 3.3089 28.9894C3.33468 29.0676 3.36046 29.1371 3.38624 29.2153C3.38624 29.224 3.39483 29.224 3.39483 29.2327C3.41202 29.2848 3.42921 29.337 3.45499 29.3978C3.47218 29.45 3.48936 29.4934 3.50655 29.5455C3.53233 29.6064 3.55811 29.6672 3.5753 29.728C3.5753 29.728 3.5753 29.7367 3.58389 29.7367C3.60108 29.7889 3.62686 29.841 3.65264 29.8931C3.66123 29.9279 3.67842 29.954 3.68701 29.9887C3.69561 30.0148 3.71279 30.0409 3.72139 30.0669C3.72998 30.0756 3.72998 30.0843 3.73857 30.093C3.76435 30.1452 3.79014 30.206 3.81592 30.2581C3.8331 30.2929 3.8417 30.319 3.85888 30.3537C3.87607 30.3885 3.88466 30.4232 3.90185 30.4493C3.93622 30.5188 3.9706 30.597 4.00497 30.6666C4.01357 30.6839 4.02216 30.7013 4.03075 30.7187C4.03935 30.7448 4.05653 30.7621 4.06513 30.7882C4.08231 30.823 4.0995 30.849 4.10809 30.8751C4.12528 30.9012 4.13388 30.9359 4.15106 30.962C4.15106 30.962 4.15106 30.9707 4.15966 30.9707L4.16825 30.9794C4.17684 30.9968 4.18544 31.0142 4.19403 31.0315C4.21981 31.0837 4.24559 31.1358 4.27137 31.188C4.27996 31.1966 4.27996 31.214 4.28856 31.2227C4.31434 31.2662 4.33152 31.3009 4.35731 31.3444C4.40887 31.4313 4.45183 31.5269 4.51199 31.6138C4.52058 31.6311 4.53777 31.6485 4.54636 31.6746C4.56355 31.7007 4.57214 31.718 4.58933 31.7441C4.61511 31.7876 4.64089 31.8397 4.67526 31.8832C4.69245 31.9179 4.71823 31.9527 4.73542 31.9787C4.74401 31.9961 4.7612 32.0135 4.76979 32.0396C4.82135 32.1265 4.87292 32.2047 4.92448 32.2916C4.94166 32.3177 4.95026 32.335 4.96744 32.3611C4.98463 32.3872 5.00182 32.4219 5.0276 32.448C5.04479 32.4828 5.07057 32.5088 5.08775 32.5436C5.10494 32.561 5.11353 32.587 5.13072 32.6044C5.16509 32.6566 5.20806 32.7174 5.24244 32.7695C5.25103 32.7869 5.25962 32.7956 5.27681 32.813C5.294 32.8391 5.31978 32.8738 5.33696 32.8999C5.37134 32.9433 5.39712 32.9868 5.43149 33.0302C5.48305 33.0998 5.54321 33.178 5.59477 33.2475C5.62055 33.2736 5.63774 33.3083 5.66352 33.3344C5.6893 33.3691 5.72367 33.4039 5.74945 33.4474C5.75804 33.456 5.76664 33.4734 5.77523 33.4821L5.78383 33.4908C5.80961 33.5169 5.83539 33.5516 5.85257 33.5777C5.86117 33.5951 5.87835 33.6038 5.88695 33.6212C5.89554 33.6298 5.90413 33.6385 5.90413 33.6472C5.92132 33.6646 5.92991 33.682 5.9471 33.6994C5.96429 33.7167 5.98148 33.7428 5.99866 33.7602C5.99866 33.7689 6.00726 33.7689 6.01585 33.7776C6.05882 33.8297 6.10178 33.8819 6.15335 33.934C6.17913 33.9688 6.20491 33.9948 6.23928 34.0296C6.23928 34.0296 6.23928 34.0296 6.24787 34.0383C6.25647 34.0557 6.27365 34.0643 6.28225 34.0817C6.28225 34.0817 6.28225 34.0817 6.28225 34.0904C6.28225 34.0904 6.28225 34.0904 6.29084 34.0991C6.31662 34.1252 6.3424 34.1512 6.35959 34.1773C6.39396 34.2208 6.43693 34.2555 6.4713 34.299L6.4799 34.3077C6.51427 34.3511 6.55724 34.3859 6.59161 34.4206C6.6088 34.438 6.61739 34.4467 6.63458 34.4641C6.64317 34.4728 6.66036 34.4902 6.66896 34.4988C6.69474 34.5249 6.71192 34.5423 6.7377 34.5684L6.84083 34.6726C6.88379 34.7161 6.92676 34.7595 6.96973 34.7943C6.98691 34.8117 7.01269 34.8291 7.02988 34.8464L7.03847 34.8551C7.05566 34.8725 7.08144 34.8986 7.09863 34.916L7.10722 34.9247C7.10722 34.9594 7.12441 34.9768 7.1416 34.9942Z" fill="#F05736"/>
<path d="M28.2378 37.003C28.212 37.0378 28.1863 37.0639 28.1519 37.0899C28.1347 37.0986 28.1261 37.116 28.1089 37.1247L28.1003 37.1334C28.066 37.1594 28.0316 37.1942 28.0058 37.2203C27.9972 37.229 27.9886 37.2377 27.98 37.2377C27.9714 37.2463 27.9628 37.255 27.9456 37.2637C27.9199 37.2898 27.8855 37.3159 27.8597 37.3419C27.8597 37.3419 27.8511 37.3419 27.8511 37.3506C27.8511 37.3506 27.8425 37.3506 27.8425 37.3593C27.8425 37.3593 27.8425 37.3593 27.8339 37.368C27.8167 37.3767 27.8081 37.3941 27.791 37.4028C27.7738 37.4201 27.748 37.4375 27.7308 37.4549C27.7308 37.4549 27.7222 37.4636 27.7136 37.4636C27.705 37.4636 27.705 37.4723 27.6964 37.4723C27.6878 37.481 27.6878 37.481 27.6792 37.481C27.6449 37.5157 27.6019 37.5418 27.5675 37.5766C27.5589 37.5766 27.5589 37.5853 27.5503 37.5853C27.5074 37.62 27.4558 37.6635 27.4128 37.6982C27.3957 37.7156 27.3699 37.733 27.3527 37.7417C27.3355 37.7591 27.3097 37.7764 27.2925 37.7851C27.2839 37.7938 27.2754 37.8025 27.2668 37.8025C27.2582 37.8025 27.2582 37.8112 27.2496 37.8199C27.2066 37.8546 27.1636 37.8807 27.1207 37.9155C26.923 38.0632 26.734 38.2022 26.5277 38.3413C26.5019 38.3587 26.4762 38.376 26.4418 38.4021C26.4418 38.4021 26.4418 38.4021 26.4332 38.4021C26.4332 38.4021 26.4332 38.4021 26.4246 38.4108C26.416 38.4195 26.4074 38.4195 26.3988 38.4282C26.3902 38.4369 26.373 38.4456 26.3644 38.4543C26.3558 38.4629 26.3473 38.4629 26.3387 38.4716C26.3387 38.4716 26.3301 38.4716 26.3301 38.4803C26.3215 38.489 26.3129 38.489 26.3043 38.4977C26.2957 38.5064 26.2785 38.5151 26.2699 38.5151C26.2527 38.5238 26.2355 38.5412 26.2184 38.5498C26.2098 38.5585 26.2012 38.5585 26.1926 38.5672C26.1582 38.5933 26.1238 38.6107 26.0895 38.6367L26.0809 38.6454C26.0723 38.6454 26.0723 38.6541 26.0723 38.6541H26.0637C26.0207 38.6802 25.9863 38.7063 25.9434 38.7323C25.9348 38.741 25.9262 38.741 25.9176 38.7497C25.909 38.7497 25.9004 38.7584 25.8918 38.7671C25.8832 38.7671 25.8832 38.7758 25.8746 38.7758C25.866 38.7845 25.8488 38.7932 25.8402 38.7932C25.8145 38.8105 25.7801 38.8279 25.7543 38.8453C25.6856 38.8888 25.6254 38.9235 25.5567 38.967C25.4707 39.0191 25.3762 39.0712 25.2903 39.1234C25.2731 39.1321 25.2559 39.1408 25.2387 39.1495C25.2215 39.1581 25.2129 39.1668 25.1957 39.1755C25.1699 39.1929 25.1528 39.2016 25.127 39.2103C25.0754 39.2364 25.0239 39.2711 24.9723 39.2972C24.9551 39.3059 24.9465 39.3146 24.9293 39.3233C24.9121 39.3319 24.895 39.3406 24.8778 39.3493C24.852 39.358 24.8348 39.3754 24.809 39.3841C24.7575 39.4102 24.7059 39.4362 24.6457 39.471H24.6372C24.6286 39.471 24.6286 39.4797 24.62 39.4797H24.6114C24.6028 39.4797 24.5942 39.4884 24.5856 39.4884C24.5512 39.5057 24.5168 39.5231 24.4825 39.5405C24.4309 39.5666 24.3793 39.5926 24.3192 39.6187C24.3192 39.6187 24.3106 39.6187 24.3106 39.6274C24.302 39.6274 24.2934 39.6361 24.2848 39.6361L24.2333 39.6622C24.2247 39.6709 24.2161 39.6709 24.2075 39.6795C24.1989 39.6795 24.1903 39.6882 24.1817 39.6882C24.1731 39.6882 24.1645 39.6969 24.1645 39.6969C24.1559 39.6969 24.1559 39.6969 24.1473 39.7056C24.1387 39.7056 24.1387 39.7143 24.1301 39.7143C24.1129 39.723 24.0958 39.7317 24.07 39.7404C24.0356 39.7578 24.0012 39.7751 23.9755 39.7838C23.9669 39.7838 23.9669 39.7925 23.9583 39.7925C23.9497 39.8012 23.9411 39.8012 23.9239 39.8099C23.9153 39.8099 23.9153 39.8099 23.9153 39.8186C23.8809 39.836 23.8551 39.8447 23.8208 39.862C23.8122 39.862 23.8036 39.8707 23.795 39.8707C23.7692 39.8794 23.7434 39.8968 23.7091 39.9055C23.6919 39.9142 23.6747 39.9229 23.6575 39.9229C23.6489 39.9229 23.6489 39.9316 23.6403 39.9316C23.6145 39.9402 23.5973 39.9489 23.5716 39.9576C23.563 39.9663 23.5458 39.9663 23.5286 39.975C23.4856 39.9924 23.4341 40.0098 23.3911 40.0358C23.3825 40.0445 23.3739 40.0445 23.3567 40.0445C23.3395 40.0532 23.3223 40.0619 23.3052 40.0706L23.2966 40.0793C23.2622 40.0967 23.2278 40.1054 23.1934 40.1227C23.1763 40.1314 23.1591 40.1401 23.1419 40.1401C23.1161 40.1488 23.0989 40.1575 23.0731 40.1662C23.0388 40.1836 23.0044 40.1923 22.97 40.2009C22.9185 40.2183 22.8669 40.2444 22.8153 40.2618C22.8067 40.2618 22.8067 40.2618 22.7981 40.2705C22.781 40.2792 22.7638 40.2878 22.738 40.2965C22.7036 40.3052 22.6692 40.3226 22.6349 40.3313H22.6263C22.5747 40.3487 22.5232 40.3661 22.4802 40.3834C22.4716 40.3834 22.4716 40.3834 22.4716 40.3834H22.463C22.4114 40.4008 22.3599 40.4182 22.2997 40.4356C22.2997 40.4356 22.2997 40.4356 22.2911 40.4356C22.2396 40.453 22.188 40.4703 22.1364 40.4877H22.1279C22.1193 40.4877 22.1107 40.4964 22.1021 40.4964C22.0849 40.5051 22.0677 40.5051 22.0505 40.5138C22.0247 40.5225 22.0075 40.5312 21.9818 40.5399C21.9732 40.5399 21.9646 40.5399 21.956 40.5485C21.9388 40.5572 21.9216 40.5572 21.8958 40.5659C21.8872 40.5659 21.8786 40.5746 21.87 40.5746C21.8615 40.5746 21.8529 40.5833 21.8443 40.5833C21.8271 40.592 21.8099 40.592 21.7927 40.6007C21.7841 40.6007 21.7755 40.6094 21.7669 40.6094C21.7583 40.6094 21.7411 40.6181 21.7326 40.6181C21.6982 40.6268 21.6638 40.6354 21.6208 40.6528C21.6122 40.6528 21.6036 40.6615 21.5951 40.6615C21.5779 40.6702 21.5693 40.6702 21.5521 40.6702C21.5091 40.6789 21.4747 40.6963 21.4318 40.705H21.4232C21.4146 40.705 21.406 40.7137 21.3974 40.7137H21.3888C21.3802 40.7137 21.363 40.7223 21.3544 40.7223C21.3373 40.7223 21.3287 40.731 21.3115 40.731C21.2943 40.731 21.2771 40.7397 21.2513 40.7484H21.2427C21.1998 40.7571 21.1654 40.7658 21.1224 40.7832C21.1052 40.7832 21.088 40.7919 21.0794 40.7919C21.0537 40.8006 21.0193 40.8092 20.9935 40.8179C20.9677 40.8266 20.9505 40.8266 20.9248 40.8353C20.9162 40.8353 20.9162 40.8353 20.9076 40.8353C20.8732 40.844 20.8388 40.8527 20.8045 40.8614C20.7959 40.8614 20.7873 40.8701 20.7787 40.8701C20.7615 40.8701 20.7443 40.8788 20.7357 40.8788C20.7185 40.8875 20.6927 40.8875 20.6756 40.8961C20.6412 40.9048 20.5982 40.9135 20.5638 40.9222C20.5552 40.9222 20.5466 40.9222 20.5381 40.9309C20.5209 40.9309 20.5037 40.9396 20.4865 40.9396C20.4779 40.9396 20.4693 40.9396 20.4607 40.9483C20.4435 40.9483 20.4263 40.957 20.4092 40.957C20.4092 40.957 20.4092 40.957 20.4006 40.957H20.392H20.3834C20.3748 40.957 20.3662 40.957 20.3576 40.9657C20.349 40.9657 20.3318 40.9744 20.3146 40.9744C20.306 40.9744 20.2888 40.9744 20.2803 40.983C20.2545 40.983 20.2373 40.9917 20.2115 40.9917C20.2115 40.9917 20.2029 40.9917 20.1943 40.9917H20.1857C20.1685 40.9917 20.1428 41.0004 20.1256 41.0004C20.1084 41.0004 20.0826 41.0091 20.0654 41.0091C20.0568 41.0091 20.0396 41.0091 20.031 41.0178C20.0224 41.0178 20.0139 41.0178 20.0053 41.0265C19.9795 41.0352 19.9451 41.0352 19.9193 41.0439C19.9107 41.0439 19.9021 41.0439 19.8935 41.0526C19.885 41.0526 19.8764 41.0526 19.8678 41.0613H19.8592C19.8506 41.0613 19.842 41.0613 19.8334 41.0613H19.8248C19.8162 41.0613 19.8162 41.0613 19.8076 41.0613C19.799 41.0613 19.7818 41.0699 19.7646 41.0699C19.7389 41.0786 19.7045 41.0786 19.6787 41.0873C19.6615 41.0873 19.6443 41.096 19.6271 41.096C19.6186 41.096 19.61 41.096 19.6014 41.096C19.5326 41.1047 19.4725 41.1134 19.4037 41.1308C19.3779 41.1308 19.3607 41.1395 19.335 41.1395C19.3264 41.1395 19.3178 41.1395 19.3092 41.1395C19.292 41.1395 19.2834 41.1482 19.2662 41.1482C19.249 41.1482 19.2318 41.1568 19.2061 41.1568C19.1803 41.1568 19.1545 41.1655 19.1287 41.1655C19.1201 41.1655 19.1029 41.1655 19.0858 41.1742C19.0686 41.1742 19.0514 41.1742 19.0428 41.1829C19.0342 41.1829 19.0256 41.1829 19.017 41.1829C18.9998 41.1829 18.9826 41.1829 18.9654 41.1916C18.9569 41.1916 18.9483 41.1916 18.9397 41.1916C18.9311 41.1916 18.9139 41.1916 18.9053 41.1916H18.8967C18.8709 41.1916 18.8451 41.2003 18.8194 41.2003C18.8194 41.2003 18.8194 41.2003 18.8108 41.2003C18.8022 41.2003 18.785 41.2003 18.7764 41.2003C18.7764 41.2003 18.7678 41.2003 18.7592 41.2003H18.7506C18.742 41.2003 18.742 41.2003 18.7334 41.2003H18.7248C18.7162 41.2003 18.7076 41.2003 18.699 41.2003C18.6819 41.2003 18.6733 41.2003 18.6561 41.2003C18.6389 41.2003 18.6217 41.2003 18.6045 41.209C18.5959 41.209 18.5873 41.209 18.5787 41.209H18.5701C18.5616 41.209 18.5444 41.209 18.5358 41.209C18.5272 41.209 18.51 41.209 18.5014 41.209H18.4928C18.4584 41.209 18.4241 41.2177 18.3983 41.2177C18.3897 41.2177 18.3811 41.2177 18.3811 41.2177C18.3811 41.2177 18.3811 41.2177 18.3725 41.2177C18.3209 41.2264 18.2694 41.2264 18.2178 41.2264C18.2092 41.2264 18.2006 41.2264 18.2006 41.2264C18.192 41.2264 18.1834 41.2264 18.1748 41.2264C18.1491 41.2264 18.1319 41.2264 18.1147 41.2351C18.1061 41.2351 18.0975 41.2351 18.0889 41.2351C18.0717 41.2351 18.0545 41.2351 18.0374 41.2351C18.0288 41.2351 18.0116 41.2351 18.003 41.2351H17.9944C17.9772 41.2351 17.9686 41.2351 17.9514 41.2351C17.917 41.2351 17.8827 41.2351 17.8569 41.2437C17.8139 41.2437 17.771 41.2524 17.7366 41.2524C17.728 41.2524 17.7108 41.2524 17.7022 41.2524C17.6936 41.2524 17.685 41.2524 17.6764 41.2524C17.6592 41.2524 17.6421 41.2524 17.6249 41.2524C17.6077 41.2524 17.5905 41.2524 17.5733 41.2524C17.5475 41.2524 17.5303 41.2524 17.5046 41.2524H17.496C17.4702 41.2524 17.4444 41.2524 17.4272 41.2524C17.41 41.2524 17.3928 41.2524 17.3842 41.2524C17.3585 41.2524 17.3241 41.2524 17.2983 41.2524C17.2811 41.2524 17.2553 41.2524 17.2382 41.2524C17.2296 41.2524 17.221 41.2524 17.2124 41.2524H17.2038C17.1694 41.2524 17.135 41.2524 17.1093 41.2524C17.0319 41.2524 16.9546 41.2524 16.8858 41.2524C16.86 41.2524 16.8257 41.2524 16.7999 41.2524H16.7741H16.7655H16.7569H16.714C16.7054 41.2524 16.6968 41.2524 16.6882 41.2524H16.6796C16.6624 41.2524 16.6366 41.2524 16.6194 41.2524C16.6022 41.2524 16.5851 41.2524 16.5679 41.2524H16.5421H16.4476H16.439H16.4304C16.4218 41.2524 16.4132 41.2524 16.4046 41.2524H16.396H16.3788H16.3616C16.353 41.2524 16.353 41.2524 16.3444 41.2524C16.3358 41.2524 16.3187 41.2524 16.3101 41.2524H16.3015C16.2929 41.2524 16.2929 41.2524 16.2843 41.2524C16.2671 41.2524 16.2499 41.2524 16.2413 41.2524C16.2327 41.2524 16.2327 41.2524 16.2241 41.2524C16.2155 41.2524 16.2155 41.2524 16.2069 41.2524C16.1983 41.2524 16.1897 41.2524 16.1812 41.2524H16.1726H16.1554H16.1468H16.1382C16.121 41.2524 16.0952 41.2524 16.078 41.2524H16.0694C16.0437 41.2524 16.0093 41.2524 15.9835 41.2524C15.9749 41.2524 15.9663 41.2524 15.9577 41.2524C15.9491 41.2524 15.9405 41.2524 15.9405 41.2524C15.9319 41.2524 15.9234 41.2524 15.9148 41.2524C15.8804 41.2524 15.846 41.2437 15.803 41.2437C15.7944 41.2437 15.7859 41.2437 15.7773 41.2437C15.7687 41.2437 15.7515 41.2437 15.7429 41.2437C15.7343 41.2437 15.7257 41.2437 15.7171 41.2437C15.6913 41.2437 15.6741 41.2437 15.6484 41.2351C15.6312 41.2351 15.614 41.2351 15.5968 41.2351C15.5882 41.2351 15.5796 41.2351 15.571 41.2351C15.5624 41.2351 15.5624 41.2351 15.5538 41.2351C15.5366 41.2351 15.5281 41.2351 15.5109 41.2351C15.4937 41.2351 15.4679 41.2351 15.4507 41.2264C15.4421 41.2264 15.4335 41.2264 15.4249 41.2264C15.4163 41.2264 15.4163 41.2264 15.4077 41.2264C15.3991 41.2264 15.3992 41.2264 15.3906 41.2264C15.382 41.2264 15.3734 41.2264 15.3648 41.2264H15.3562C15.3476 41.2264 15.3476 41.2264 15.339 41.2264H15.3304C15.3218 41.2264 15.3046 41.2264 15.296 41.2264C15.2788 41.2264 15.2617 41.2264 15.2445 41.2177C15.2273 41.2177 15.2101 41.2177 15.1929 41.209H15.1843C15.1671 41.209 15.1499 41.209 15.1328 41.2003H15.1156C15.107 41.2003 15.0984 41.2003 15.0898 41.2003C15.0812 41.2003 15.0726 41.2003 15.064 41.2003C15.0554 41.2003 15.0468 41.2003 15.0382 41.2003C15.0296 41.2003 15.021 41.2003 15.0124 41.2003C15.0038 41.2003 14.9953 41.2003 14.9781 41.2003C14.9695 41.2003 14.9695 41.2003 14.9695 41.2003C14.9609 41.2003 14.9609 41.2003 14.9609 41.2003H14.9523C14.9437 41.2003 14.9351 41.2003 14.9265 41.2003H14.9093C14.8835 41.2003 14.8578 41.1916 14.8406 41.1916H14.832C14.8234 41.1916 14.8234 41.1916 14.8148 41.1916H14.8062C14.7632 41.1829 14.7289 41.1829 14.6859 41.1742C14.6773 41.1742 14.6773 41.1742 14.6687 41.1742C14.6601 41.1742 14.6515 41.1742 14.6343 41.1742H14.6257H14.6171H14.6085C14.6 41.1742 14.5914 41.1742 14.5828 41.1742C14.5656 41.1742 14.557 41.1742 14.5398 41.1655C14.5226 41.1655 14.5054 41.1568 14.4882 41.1568C14.4453 41.1482 14.4023 41.1395 14.3593 41.1395C14.3164 41.1308 14.2734 41.1221 14.239 41.1221C14.2304 41.1221 14.2218 41.1221 14.2132 41.1134C14.2047 41.1134 14.2047 41.1134 14.1961 41.1134C14.1875 41.1134 14.1703 41.1047 14.1617 41.1047C14.1531 41.1047 14.1359 41.1047 14.1273 41.096C14.1187 41.096 14.1187 41.096 14.1101 41.096C14.0929 41.096 14.0758 41.0873 14.05 41.0873C14.0414 41.0873 14.0328 41.0873 14.0242 41.0786C14.0156 41.0786 14.0156 41.0786 14.007 41.0786C13.9812 41.0699 13.964 41.0699 13.9383 41.0699C13.9297 41.0699 13.9211 41.0699 13.9125 41.0613C13.8953 41.0613 13.8781 41.0526 13.8523 41.0526C13.8437 41.0526 13.8265 41.0439 13.8179 41.0439C13.8094 41.0439 13.7922 41.0439 13.7836 41.0352C13.775 41.0352 13.7664 41.0352 13.7578 41.0352C13.7492 41.0352 13.7406 41.0352 13.7406 41.0265C13.732 41.0265 13.732 41.0265 13.7234 41.0265C13.7148 41.0265 13.7062 41.0265 13.6976 41.0178C13.6805 41.0178 13.6633 41.0091 13.6547 41.0091C13.6375 41.0091 13.6289 41.0004 13.6203 41.0004C13.6117 41.0004 13.6031 41.0004 13.5945 40.9917C13.5859 40.9917 13.5687 40.983 13.5601 40.983C13.5601 40.983 13.5601 40.983 13.5515 40.983C13.543 40.983 13.5344 40.983 13.5258 40.9744C13.5086 40.9744 13.4914 40.9657 13.4742 40.9657C13.457 40.9657 13.4484 40.957 13.4312 40.957C13.4226 40.957 13.4226 40.957 13.4141 40.957C13.4055 40.957 13.4055 40.957 13.3969 40.957C13.3883 40.957 13.3797 40.957 13.3797 40.9483C13.3711 40.9483 13.3711 40.9483 13.3625 40.9396C13.3539 40.9396 13.3367 40.9309 13.3195 40.9309H13.3109C13.2937 40.9309 13.268 40.9222 13.2508 40.9135H13.2422C13.2336 40.9135 13.225 40.9135 13.2164 40.9048C13.1992 40.9048 13.182 40.8961 13.1648 40.8961C13.1477 40.8961 13.1305 40.8875 13.1133 40.8875C13.1047 40.8875 13.1047 40.8875 13.0961 40.8875C13.0875 40.8875 13.0875 40.8875 13.0789 40.8875H13.0703C13.0617 40.8875 13.0445 40.8788 13.0359 40.8788C13.0188 40.8788 13.0016 40.8701 12.9844 40.8614C12.9844 40.8614 12.9758 40.8614 12.9672 40.8614C12.9414 40.8527 12.9242 40.8527 12.8984 40.844C12.8899 40.844 12.8899 40.844 12.8813 40.844C12.8727 40.844 12.8641 40.8353 12.8555 40.8353C12.8469 40.8353 12.8383 40.8266 12.8297 40.8266C12.8211 40.8266 12.8125 40.8266 12.8039 40.8179C12.7695 40.8092 12.7352 40.8006 12.7008 40.7919C12.6922 40.7919 12.6922 40.7919 12.6836 40.7919C12.675 40.7919 12.675 40.7919 12.6664 40.7832C12.6578 40.7832 12.6406 40.7745 12.632 40.7745C12.6235 40.7745 12.6235 40.7745 12.6149 40.7658C12.5977 40.7571 12.5719 40.7571 12.5547 40.7484H12.5461C12.5375 40.7484 12.5289 40.7484 12.5203 40.7397C12.5117 40.7397 12.5117 40.7397 12.5031 40.7397C12.4946 40.7397 12.486 40.7397 12.4774 40.731C12.443 40.7223 12.4086 40.7137 12.3828 40.705C12.3571 40.6963 12.3399 40.6963 12.3227 40.6876C12.3141 40.6876 12.3055 40.6876 12.2969 40.6789C12.2883 40.6789 12.2797 40.6789 12.2711 40.6702C12.2711 40.6702 12.2711 40.6702 12.2625 40.6702C12.2539 40.6702 12.2453 40.6702 12.2367 40.6615C12.2282 40.6615 12.211 40.6528 12.2024 40.6528C12.1938 40.6528 12.1852 40.6441 12.168 40.6441C12.1594 40.6441 12.1594 40.6441 12.1508 40.6354C12.1336 40.6268 12.1078 40.6268 12.0907 40.6181C12.0821 40.6181 12.0821 40.6181 12.0735 40.6094H12.0649C12.0649 40.6094 12.0649 40.6094 12.0563 40.6094C12.0477 40.6094 12.0391 40.6094 12.0305 40.6007C12.0047 40.592 11.9789 40.5833 11.9618 40.5746C11.9446 40.5746 11.936 40.5659 11.9274 40.5659C11.9188 40.5659 11.9102 40.5659 11.9102 40.5572C11.9016 40.5572 11.893 40.5485 11.8844 40.5485C11.8758 40.5485 11.8758 40.5485 11.8672 40.5399C11.8157 40.5225 11.7641 40.5051 11.7125 40.4877H11.7039C11.6954 40.4877 11.6954 40.479 11.6868 40.479C11.6782 40.479 11.6782 40.479 11.6696 40.4703C11.661 40.4703 11.6438 40.4616 11.6352 40.4616C11.6094 40.453 11.575 40.4443 11.5407 40.4269C11.5321 40.4182 11.5149 40.4182 11.5063 40.4182C11.4977 40.4095 11.4805 40.4095 11.4719 40.4095C11.4461 40.4008 11.429 40.3921 11.4032 40.3834C11.3946 40.3834 11.386 40.3747 11.3774 40.3747C11.343 40.3661 11.3086 40.3487 11.2743 40.34C11.2657 40.34 11.2571 40.3313 11.2571 40.3313C11.2227 40.3226 11.1883 40.3052 11.1626 40.2965C11.1454 40.2878 11.1368 40.2878 11.1196 40.2792C11.1196 40.2792 11.1196 40.2792 11.111 40.2792C11.0852 40.2705 11.0594 40.2618 11.0423 40.2531C11.0251 40.2444 11.0079 40.2444 10.9907 40.2357C10.9735 40.227 10.9563 40.227 10.9391 40.2183C10.9305 40.2183 10.9305 40.2183 10.9219 40.2096C10.9133 40.2009 10.8962 40.2009 10.8876 40.1923C10.879 40.1923 10.879 40.1923 10.879 40.1836C10.8618 40.1749 10.8446 40.1662 10.8274 40.1662C10.793 40.1575 10.7673 40.1401 10.7329 40.1314C10.7243 40.1227 10.7071 40.1227 10.6985 40.114C10.6899 40.114 10.6899 40.114 10.6899 40.1054H10.6813C10.6641 40.0967 10.647 40.088 10.6298 40.0793C10.6126 40.0706 10.5954 40.0619 10.5782 40.0532C10.5696 40.0532 10.5696 40.0532 10.561 40.0445C10.561 40.0445 10.561 40.0445 10.5524 40.0445C10.5352 40.0358 10.518 40.0358 10.5095 40.0271C10.5095 40.0271 10.5009 40.0271 10.5009 40.0185C10.4923 40.0185 10.4923 40.0098 10.4837 40.0098C10.4579 40.0011 10.4407 39.9924 10.4149 39.9837C10.3977 39.975 10.3891 39.975 10.372 39.9663C10.3462 39.9576 10.329 39.9489 10.3032 39.9402C10.2946 39.9316 10.286 39.9316 10.2688 39.9229C10.2602 39.9229 10.2516 39.9142 10.2431 39.9142C10.2259 39.9055 10.2001 39.8968 10.1829 39.8881C10.1485 39.8707 10.1227 39.862 10.0884 39.8447C10.0712 39.836 10.0454 39.8273 10.0282 39.8186C10.0196 39.8186 10.011 39.8099 10.0024 39.8099C9.97666 39.8012 9.95947 39.7925 9.93369 39.7838C9.9251 39.7838 9.9165 39.7751 9.90791 39.7751H9.89932C9.88213 39.7664 9.87354 39.7578 9.85635 39.7578C9.83916 39.7491 9.83057 39.7404 9.81338 39.7404C9.79619 39.7317 9.77901 39.723 9.76182 39.7143C9.74463 39.7056 9.72745 39.6969 9.71026 39.6882C9.69307 39.6795 9.68448 39.6709 9.66729 39.6622C9.6587 39.6622 9.65011 39.6535 9.65011 39.6535C9.63292 39.6448 9.62432 39.6448 9.61573 39.6361C9.60714 39.6361 9.60714 39.6361 9.59854 39.6274C9.58995 39.6274 9.58136 39.6187 9.58136 39.6187C9.56417 39.61 9.54698 39.6013 9.5298 39.5926C9.50402 39.584 9.48683 39.5666 9.46105 39.5579C9.42668 39.5405 9.3923 39.5231 9.36652 39.5057C9.35793 39.5057 9.34933 39.4971 9.34074 39.4971C9.33215 39.4884 9.31496 39.4884 9.30637 39.4797C9.29777 39.471 9.28918 39.471 9.28059 39.4623C9.22043 39.4362 9.16028 39.4015 9.10012 39.3667C9.09153 39.3667 9.08294 39.358 9.07434 39.3493C9.06575 39.3493 9.06575 39.3493 9.06575 39.3406C9.04856 39.3319 9.03997 39.3319 9.02278 39.3233C8.997 39.3146 8.97981 39.2972 8.95403 39.2885C8.94544 39.2798 8.93685 39.2798 8.91966 39.2711C8.91107 39.2624 8.90247 39.2624 8.89388 39.2624C8.87669 39.2537 8.8595 39.245 8.84232 39.2364C8.84232 39.2364 8.84232 39.2364 8.83372 39.2364C8.82513 39.2364 8.82513 39.2277 8.81654 39.2277C8.79935 39.219 8.78216 39.2103 8.77357 39.2016C8.76498 39.1929 8.74779 39.1929 8.7392 39.1842C8.72201 39.1755 8.70482 39.1668 8.67904 39.1495C8.63607 39.1234 8.6017 39.106 8.55873 39.0799C8.53295 39.0626 8.50717 39.0539 8.48139 39.0365C8.4728 39.0278 8.4642 39.0278 8.45561 39.0191C8.42983 39.0017 8.41264 38.993 8.38686 38.9757C8.36108 38.9583 8.3353 38.9496 8.31812 38.9322C8.30093 38.9235 8.28374 38.9148 8.26655 38.8974C8.24937 38.8888 8.24077 38.8801 8.23218 38.8714C8.2064 38.854 8.18062 38.8453 8.16343 38.8279C8.12906 38.8105 8.09468 38.7845 8.06031 38.7584C8.03453 38.741 8.00875 38.7236 7.98297 38.7063C7.96578 38.6976 7.9486 38.6802 7.93141 38.6715C7.92281 38.6628 7.90563 38.6541 7.89703 38.6454C7.89703 38.6454 7.89703 38.6454 7.88844 38.6454C7.85407 38.6281 7.81969 38.602 7.79391 38.5846C7.78532 38.5846 7.77673 38.5759 7.77673 38.5759C7.75954 38.5672 7.74235 38.5498 7.72516 38.5412C7.72516 38.5412 7.72516 38.5412 7.71657 38.5412C7.70798 38.5412 7.70798 38.5325 7.69938 38.5325C7.69079 38.5325 7.6822 38.5238 7.6736 38.5151C7.64782 38.4977 7.63064 38.489 7.60486 38.4716C7.57048 38.4543 7.5447 38.4282 7.51033 38.4108C7.49314 38.3934 7.46736 38.3847 7.45017 38.3674C7.44158 38.3587 7.43298 38.3587 7.42439 38.35C7.4158 38.3413 7.39861 38.3326 7.39002 38.3239C7.35564 38.2978 7.31268 38.2718 7.2783 38.2457C7.26112 38.237 7.24393 38.2196 7.22674 38.2109C7.21815 38.2022 7.20955 38.2022 7.20096 38.1936C7.20096 38.1936 7.20096 38.1936 7.19237 38.1936C7.19237 38.1936 7.18377 38.1936 7.18377 38.1849C7.18377 38.1849 7.17518 38.1849 7.17518 38.1762C7.13221 38.1501 7.08925 38.1153 7.04628 38.0893C7.0205 38.0719 6.99472 38.0545 6.96894 38.0284C6.96034 38.0198 6.95175 38.0198 6.94316 38.0111C6.92597 38.0024 6.90878 37.985 6.8916 37.9763C6.883 37.9676 6.87441 37.9676 6.86581 37.9589C6.85722 37.9589 6.85722 37.9502 6.85722 37.9502C6.84004 37.9329 6.81425 37.9242 6.79707 37.9068C6.77988 37.8894 6.7541 37.872 6.73691 37.8546C6.72832 37.846 6.71113 37.8373 6.70254 37.8286C6.70254 37.8286 6.69394 37.8286 6.69394 37.8199C6.68535 37.8112 6.67676 37.8025 6.65957 37.7938C6.65098 37.7851 6.64238 37.7851 6.64238 37.7764L6.63379 37.7677C6.6252 37.7677 6.6252 37.7591 6.6166 37.7591C6.6166 37.7591 6.6166 37.7591 6.60801 37.7504C6.13537 37.3419 6.10959 36.612 6.53067 36.134C6.77129 35.8646 7.10643 35.7256 7.44158 35.7256C7.71657 35.7256 7.99156 35.8125 8.23218 35.995C8.24937 36.0124 8.26655 36.0211 8.29233 36.0384C8.30093 36.0384 8.30093 36.0471 8.30952 36.0471C8.31811 36.0558 8.32671 36.0558 8.32671 36.0645C8.34389 36.0732 8.35249 36.0819 8.36968 36.0993C8.37827 36.108 8.38686 36.108 8.38686 36.1166L8.39546 36.1253C8.41264 36.134 8.42124 36.1514 8.43842 36.1601C8.45561 36.1775 8.4728 36.1862 8.48998 36.2035C8.50717 36.2122 8.51577 36.2209 8.53295 36.2296C8.54155 36.2383 8.54155 36.2383 8.55014 36.247C8.56733 36.2644 8.58451 36.2731 8.61029 36.2904C8.61889 36.2991 8.63607 36.3078 8.64467 36.3165C8.68764 36.3513 8.7306 36.3773 8.77357 36.4034C8.79076 36.4121 8.79935 36.4208 8.81654 36.4295C8.82513 36.4382 8.82513 36.4382 8.83372 36.4382C8.84232 36.4469 8.85091 36.4556 8.8681 36.4556C8.87669 36.4642 8.88529 36.4642 8.89388 36.4729C8.92825 36.499 8.96263 36.5164 9.00559 36.5425L9.01419 36.5511C9.05715 36.5772 9.10012 36.612 9.14309 36.638C9.15168 36.638 9.15168 36.6467 9.15168 36.6467C9.17746 36.6641 9.20324 36.6815 9.22043 36.6902C9.23762 36.6989 9.25481 36.7163 9.28059 36.7249C9.29777 36.7336 9.30637 36.7423 9.32355 36.751C9.32355 36.751 9.32355 36.751 9.33215 36.7597C9.34074 36.7684 9.35793 36.7771 9.36652 36.7771C9.3923 36.7945 9.41808 36.8118 9.44386 36.8292C9.45245 36.8379 9.46105 36.8379 9.46964 36.8466C9.49542 36.864 9.5212 36.8814 9.54698 36.8901C9.56417 36.8987 9.58995 36.9161 9.60714 36.9248C9.63292 36.9422 9.65011 36.9509 9.67589 36.9596C9.69307 36.9683 9.71026 36.9856 9.72745 36.9943C9.74463 37.003 9.76182 37.0204 9.7876 37.0291C9.79619 37.0378 9.81338 37.0465 9.83057 37.0552C9.85635 37.0725 9.88213 37.0899 9.90791 37.0986C9.9165 37.0986 9.9251 37.1073 9.93369 37.1073C9.94228 37.1073 9.94228 37.116 9.95088 37.116C9.95947 37.1247 9.97666 37.1247 9.98525 37.1334C10.011 37.1421 10.0282 37.1594 10.054 37.1681C10.0884 37.1855 10.1227 37.2029 10.1485 37.2203L10.1571 37.229C10.1829 37.2377 10.2087 37.255 10.2259 37.2637C10.2345 37.2724 10.2516 37.2724 10.2602 37.2811C10.2688 37.2898 10.2774 37.2898 10.286 37.2985C10.3032 37.3072 10.3204 37.3159 10.3376 37.3246C10.3462 37.3332 10.3548 37.3332 10.3634 37.3332C10.372 37.3419 10.3806 37.3419 10.3891 37.3506C10.3977 37.3506 10.3977 37.3593 10.4063 37.3593C10.4493 37.3854 10.5009 37.4028 10.5438 37.4288C10.5696 37.4462 10.5954 37.4549 10.6212 37.4636C10.6298 37.4636 10.6298 37.4723 10.6298 37.4723C10.6555 37.4897 10.6899 37.4984 10.7157 37.5157C10.7243 37.5157 10.7243 37.5244 10.7243 37.5244C10.7243 37.5244 10.7243 37.5244 10.7329 37.5244C10.7415 37.5244 10.7415 37.5331 10.7501 37.5331C10.7587 37.5331 10.7673 37.5418 10.7759 37.5418C10.7844 37.5418 10.793 37.5505 10.8016 37.5505C10.8102 37.5505 10.8102 37.5592 10.8188 37.5592C10.8274 37.5679 10.836 37.5679 10.8446 37.5679C10.8532 37.5766 10.8704 37.5766 10.879 37.5853C10.8876 37.5853 10.8876 37.5939 10.8962 37.5939C10.9048 37.6026 10.9133 37.6026 10.9305 37.6113C10.9391 37.62 10.9477 37.62 10.9477 37.62H10.9563C10.9649 37.6287 10.9821 37.6287 10.9907 37.6374C10.9993 37.6374 11.0079 37.6461 11.0079 37.6461C11.0165 37.6548 11.0337 37.6548 11.0423 37.6635C11.0508 37.6635 11.0508 37.6722 11.0594 37.6722C11.0766 37.6808 11.0852 37.6808 11.1024 37.6895L11.111 37.6982C11.1196 37.7069 11.1368 37.7069 11.1454 37.7156C11.1712 37.733 11.2055 37.7417 11.2313 37.7504C11.2399 37.7591 11.2485 37.7591 11.2571 37.7591C11.2743 37.7677 11.2915 37.7764 11.3086 37.7764C11.3258 37.7851 11.3516 37.7938 11.3688 37.8025C11.386 37.8112 11.4032 37.8199 11.4204 37.8199H11.429C11.4461 37.8286 11.4719 37.8373 11.4891 37.846C11.4977 37.846 11.5063 37.8546 11.5149 37.8546H11.5235C11.5665 37.872 11.6094 37.8894 11.6524 37.9068C11.6782 37.9155 11.7039 37.9242 11.7297 37.9329C11.7727 37.9502 11.8157 37.9676 11.8586 37.985C11.9532 38.0198 12.0477 38.0545 12.1422 38.0893C12.1594 38.098 12.1852 38.1067 12.2024 38.1067C12.2024 38.1067 12.2024 38.1067 12.211 38.1067H12.2196C12.2282 38.1067 12.2453 38.1153 12.2539 38.1153C12.2969 38.1327 12.3313 38.1414 12.3742 38.1588C12.3742 38.1588 12.3742 38.1588 12.3828 38.1588C12.443 38.1762 12.5031 38.2022 12.5633 38.2196C12.5805 38.2283 12.5977 38.2283 12.6149 38.237C12.6235 38.237 12.6406 38.2457 12.6492 38.2457L12.6836 38.2544C12.6922 38.2544 12.7008 38.2631 12.718 38.2631C12.7266 38.2631 12.7266 38.2631 12.7352 38.2631C12.7867 38.2805 12.8383 38.2978 12.8899 38.3065H12.8984H12.907C12.9156 38.3152 12.9328 38.3152 12.95 38.3152C12.9844 38.3239 13.0102 38.3326 13.0445 38.3413C13.0531 38.3413 13.0703 38.35 13.0789 38.35C13.1133 38.3587 13.1391 38.3674 13.1734 38.376C13.1906 38.3847 13.1992 38.3847 13.2164 38.3847C13.225 38.3847 13.2422 38.3934 13.2508 38.3934C13.2852 38.4021 13.3109 38.4108 13.3453 38.4195C13.3625 38.4282 13.3797 38.4282 13.4055 38.4369H13.4141H13.4226C13.4484 38.4456 13.4742 38.4456 13.4914 38.4543C13.5 38.4543 13.5086 38.4629 13.5172 38.4629C13.5344 38.4716 13.5515 38.4716 13.5687 38.4716C13.5773 38.4716 13.5859 38.4716 13.5945 38.4803C13.6375 38.489 13.689 38.5064 13.732 38.5151C13.7406 38.5151 13.7578 38.5238 13.7664 38.5238C13.8265 38.5412 13.8867 38.5498 13.9469 38.5585C13.9726 38.5672 14.007 38.5672 14.0328 38.5759H14.0414C14.1187 38.5933 14.1875 38.6107 14.2648 38.6194C14.2734 38.6194 14.282 38.6281 14.2992 38.6281C14.3164 38.6281 14.3422 38.6367 14.3593 38.6367C14.3679 38.6367 14.3765 38.6367 14.3851 38.6454C14.4109 38.6541 14.4367 38.6541 14.4625 38.6628H14.4796C14.4968 38.6628 14.514 38.6715 14.5398 38.6715C14.557 38.6715 14.5742 38.6802 14.5914 38.6802C14.6 38.6802 14.6 38.6802 14.6085 38.6802C14.6171 38.6802 14.6171 38.6802 14.6257 38.6802C14.6343 38.6802 14.6429 38.6889 14.6515 38.6889C14.7117 38.6976 14.7718 38.7063 14.8234 38.715C14.832 38.715 14.8492 38.715 14.8578 38.7236C14.8578 38.7236 14.8664 38.7236 14.8749 38.7236C14.9695 38.7323 15.0554 38.7497 15.1499 38.7584C15.1585 38.7584 15.1585 38.7584 15.1671 38.7584C15.2531 38.7671 15.3476 38.7845 15.4421 38.7932C15.4507 38.7932 15.4507 38.7932 15.4593 38.7932H15.4679C15.5023 38.7932 15.5452 38.8019 15.5796 38.8019C15.5882 38.8019 15.5968 38.8019 15.5968 38.8019C15.6398 38.8019 15.6827 38.8105 15.7257 38.8105C15.7257 38.8105 15.7257 38.8105 15.7343 38.8105C15.7515 38.8105 15.7687 38.8105 15.7859 38.8105C15.8288 38.8105 15.8632 38.8192 15.9062 38.8192H15.9148C15.9491 38.8192 15.9749 38.8192 16.0007 38.8279C16.0093 38.8279 16.0265 38.8279 16.0351 38.8279H16.0437C16.0523 38.8279 16.0608 38.8279 16.0694 38.8279C16.078 38.8279 16.078 38.8279 16.0866 38.8279C16.164 38.8366 16.2413 38.8366 16.3272 38.8366C16.3358 38.8366 16.3444 38.8366 16.353 38.8366C16.439 38.8366 16.5249 38.8453 16.6108 38.8453C16.6194 38.8453 16.6194 38.8453 16.628 38.8453H16.6366C16.8772 38.854 17.1178 38.8453 17.3585 38.8453C17.3671 38.8453 17.3757 38.8453 17.3842 38.8453C17.4874 38.8453 17.5905 38.8366 17.6936 38.8279C17.8999 38.8192 18.0975 38.8019 18.3037 38.7845C18.4069 38.7758 18.51 38.7584 18.6131 38.7497C18.7162 38.741 18.8108 38.7236 18.9139 38.715C18.974 38.7063 19.0342 38.6976 19.0944 38.6889C19.1287 38.6802 19.1631 38.6802 19.1975 38.6715C19.2061 38.6715 19.2147 38.6715 19.2233 38.6715C19.2318 38.6715 19.2318 38.6715 19.2404 38.6715C19.3264 38.6541 19.4209 38.6367 19.5068 38.6281C19.5154 38.6281 19.5154 38.6281 19.524 38.6281H19.5326C19.5498 38.6194 19.5756 38.6194 19.5928 38.6194C19.6357 38.6107 19.6787 38.602 19.7217 38.5933C19.7303 38.5933 19.7389 38.5933 19.756 38.5846C19.7646 38.5846 19.7732 38.5846 19.7818 38.5759C19.7904 38.5759 19.8076 38.5672 19.8162 38.5672C19.8248 38.5672 19.842 38.5585 19.8506 38.5585C19.8935 38.5498 19.9451 38.5412 19.9881 38.5325C20.031 38.5238 20.0826 38.5151 20.1256 38.4977C20.1428 38.4977 20.1599 38.489 20.1857 38.4803C20.2631 38.4629 20.3404 38.4456 20.4177 38.4282C20.4177 38.4282 20.4177 38.4282 20.4263 38.4282C20.4263 38.4282 20.4263 38.4282 20.4349 38.4282C20.4435 38.4282 20.4435 38.4282 20.4521 38.4195C20.4693 38.4195 20.4865 38.4108 20.5037 38.4021C20.5724 38.3847 20.6498 38.3674 20.7185 38.35C20.7185 38.35 20.7185 38.35 20.7271 38.35H20.7357C20.7529 38.3413 20.7701 38.3413 20.7787 38.3413C20.856 38.3152 20.9334 38.2978 21.0193 38.2718C21.0365 38.2631 21.0537 38.2631 21.0623 38.2544C21.1138 38.237 21.1654 38.2196 21.2169 38.2022C21.2513 38.1936 21.2771 38.1849 21.3029 38.1762C21.363 38.1588 21.4232 38.1327 21.4833 38.1153C21.5091 38.1067 21.5263 38.098 21.5521 38.0893C21.5779 38.0806 21.5951 38.0719 21.6208 38.0632C21.6982 38.0371 21.7841 38.0111 21.8615 37.9763C21.87 37.9763 21.87 37.9676 21.8786 37.9676C21.9646 37.9329 22.0591 37.8981 22.145 37.8633C22.1536 37.8633 22.1622 37.8546 22.1622 37.8546C22.2052 37.8373 22.2396 37.8199 22.2825 37.8112C22.2825 37.8112 22.2825 37.8112 22.2911 37.8112C22.3341 37.7938 22.3771 37.7764 22.4286 37.7591C22.4372 37.7591 22.4372 37.7504 22.4458 37.7504C22.5317 37.7156 22.6177 37.6808 22.7036 37.6374C22.7122 37.6374 22.7122 37.6287 22.7208 37.6287C22.8067 37.5939 22.9013 37.5505 22.9872 37.507C22.9872 37.507 22.9958 37.507 22.9958 37.4984C23.0731 37.4636 23.1505 37.4288 23.2192 37.3941C23.2708 37.368 23.3223 37.3419 23.3739 37.3159C23.3997 37.2985 23.4341 37.2898 23.4598 37.2724C23.4684 37.2637 23.4856 37.255 23.5028 37.255C23.5114 37.255 23.52 37.2463 23.5286 37.2463C23.563 37.229 23.5973 37.2116 23.6317 37.1942C23.6575 37.1855 23.6747 37.1681 23.7005 37.1594L23.7091 37.1508C23.7176 37.1421 23.7348 37.1334 23.752 37.1334C23.7778 37.1247 23.8036 37.1073 23.8208 37.0986C23.8294 37.0899 23.8465 37.0812 23.8551 37.0812C23.8637 37.0725 23.8723 37.0725 23.8809 37.0639C23.9497 37.0291 24.0184 36.9856 24.0872 36.9509C24.1129 36.9335 24.1387 36.9248 24.1645 36.9074C24.1817 36.8987 24.1989 36.8814 24.2161 36.8727C24.259 36.8466 24.302 36.8205 24.345 36.7945C24.3536 36.7858 24.3622 36.7858 24.3793 36.7771C24.4481 36.7423 24.5082 36.6989 24.577 36.6554C24.5856 36.6467 24.6028 36.638 24.6114 36.6294C24.7832 36.5251 24.9465 36.4121 25.1098 36.2991C25.1184 36.2991 25.1184 36.2904 25.127 36.2904C25.127 36.2904 25.1356 36.2904 25.1356 36.2818C25.1442 36.2818 25.1442 36.2731 25.1528 36.2731C25.2301 36.2209 25.3074 36.1688 25.3762 36.108C25.4278 36.0732 25.4793 36.0297 25.5309 35.995C25.5567 35.9689 25.591 35.9515 25.6168 35.9255C25.6598 35.8907 25.6942 35.8646 25.7371 35.8299C25.7457 35.8299 25.7457 35.8212 25.7543 35.8212C25.7887 35.7951 25.8231 35.769 25.866 35.7343C26.0293 35.6039 26.184 35.4736 26.3387 35.3432C26.4418 35.2563 26.5535 35.1868 26.6738 35.1347C26.7168 35.1173 26.7511 35.0999 26.7941 35.0912C26.8113 35.0825 26.8285 35.0825 26.8457 35.0738C26.8629 35.0652 26.8801 35.0652 26.8972 35.0565C26.9144 35.0565 26.9316 35.0478 26.9488 35.0478C27.1035 35.0217 27.2582 35.0217 27.4043 35.0478C27.4214 35.0478 27.4386 35.0565 27.4644 35.0565C27.5589 35.0825 27.6449 35.1086 27.7308 35.1521C27.7394 35.1521 27.7394 35.1607 27.7394 35.1607C27.7824 35.1781 27.8167 35.2042 27.8597 35.2303C27.8683 35.239 27.8683 35.239 27.8769 35.239C27.8941 35.2476 27.9027 35.2563 27.9199 35.2737C27.937 35.2911 27.9628 35.3085 27.98 35.3259C27.9886 35.3345 27.9972 35.3432 28.0058 35.3519C28.0144 35.3606 28.023 35.3693 28.0316 35.378C28.0402 35.3867 28.0574 35.4041 28.066 35.4128C28.066 35.4128 28.0745 35.4128 28.0745 35.4214C28.0831 35.4301 28.1003 35.4475 28.1089 35.4649C28.1175 35.4736 28.1261 35.4823 28.1347 35.491C28.1433 35.4997 28.1519 35.517 28.1605 35.5257C28.1691 35.5344 28.1777 35.5431 28.1863 35.5605C28.2206 35.6126 28.2464 35.6648 28.2722 35.7169C28.5558 36.1862 28.5214 36.6554 28.2378 37.003Z" fill="#36A923"/>
</g>
<defs>
<clipPath id="clip0_2811_41790">
<rect width="166.286" height="34.2857" fill="white" transform="translate(0 7)"/>
</clipPath>
</defs>
</svg>
